<svg xmlns="http://www.w3.org/2000/svg" width="1000" height="235.0442" viewBox="0 0 1000 235.0442"><defs><style>.a,.aa,.ad,.c,.e,.p,.q,.u{fill:#fff;}.a,.ae,.af{stroke:#0b1236;}.a,.ae,.af,.b{stroke-miterlimit:10;}.a,.b{stroke-width:3.1807px;}.b{fill:#132254;stroke:#132254;}.ab,.d,.f,.h,.i,.l,.n,.t,.w,.x{fill:#0c1234;}.d,.e,.h,.i,.j,.k,.m,.o,.q,.t,.u,.y,.z{stroke:#0c1234;stroke-linecap:round;stroke-linejoin:round;}.d,.e,.f,.h,.j{fill-rule:evenodd;}.ac,.d,.r,.t,.w{opacity:0.5;}.f,.g,.l,.p,.u{opacity:0.2;}.ae,.j,.m{fill:none;}.k{fill:#4070b9;}.o{fill:#6fa2e7;}.ab,.ad,.s{opacity:0.3;}.ac,.v{fill:#0b1236;}.x{opacity:0.1;}.y{fill:#6fa1e6;}.z{fill:#8bdae1;}.aa{opacity:0.35;}.af{fill:#5a391b;}</style></defs><path class="a" d="M237.5245,175.9757H106.2451a3.6407,3.6407,0,0,1-3.2419-5.2976l26.4457-51.7455a3.6408,3.6408,0,0,0,0-3.3137L103.0032,63.8735a3.6408,3.6408,0,0,1,3.2419-5.2977H237.5245a3.641,3.641,0,0,1,3.242,1.9839l28.1392,55.0592a3.6408,3.6408,0,0,1,0,3.3137l-28.1392,55.0592A3.6409,3.6409,0,0,1,237.5245,175.9757Z"/><path class="a" d="M394.5485,175.9757H263.2691a3.6408,3.6408,0,0,1-3.242-5.2976l26.4458-51.7455a3.6408,3.6408,0,0,0,0-3.3137L260.0271,63.8735a3.6409,3.6409,0,0,1,3.242-5.2977H394.5485A3.6408,3.6408,0,0,1,397.79,60.56L425.93,115.6189a3.6408,3.6408,0,0,1,0,3.3137L397.79,173.9918A3.6406,3.6406,0,0,1,394.5485,175.9757Z"/><path class="a" d="M551.5725,175.9757H420.2931a3.6408,3.6408,0,0,1-3.242-5.2976l26.4457-51.7455a3.6408,3.6408,0,0,0,0-3.3137L417.0511,63.8735a3.6408,3.6408,0,0,1,3.242-5.2977H551.5725a3.6409,3.6409,0,0,1,3.2419,1.9839l28.1393,55.0592a3.6408,3.6408,0,0,1,0,3.3137l-28.1393,55.0592A3.6407,3.6407,0,0,1,551.5725,175.9757Z"/><path class="a" d="M708.5964,175.9757H577.317a3.6407,3.6407,0,0,1-3.2419-5.2976l26.4457-51.7455a3.6408,3.6408,0,0,0,0-3.3137L574.0751,63.8735a3.6408,3.6408,0,0,1,3.2419-5.2977H708.5964a3.6409,3.6409,0,0,1,3.242,1.9839l28.1393,55.0592a3.6408,3.6408,0,0,1,0,3.3137l-28.1393,55.0592A3.6407,3.6407,0,0,1,708.5964,175.9757Z"/><path class="a" d="M865.62,175.9757H734.341a3.6407,3.6407,0,0,1-3.2419-5.2976l26.4457-51.7455a3.6408,3.6408,0,0,0,0-3.3137L731.0991,63.8735a3.6408,3.6408,0,0,1,3.2419-5.2977H865.62a3.641,3.641,0,0,1,3.242,1.9839l28.1392,55.0592a3.64,3.64,0,0,1,0,3.3137l-28.1392,55.0592A3.6409,3.6409,0,0,1,865.62,175.9757Z"/><path class="b" d="M237.5245,176.4684H106.2451a3.6408,3.6408,0,0,1-3.2419-5.2977l26.4457-51.7454a3.641,3.641,0,0,0,0-3.3138L103.0032,64.3661a3.6407,3.6407,0,0,1,3.2419-5.2976H237.5245a3.6409,3.6409,0,0,1,3.242,1.9839l28.1392,55.0591a3.641,3.641,0,0,1,0,3.3138l-28.1392,55.0591A3.641,3.641,0,0,1,237.5245,176.4684Z"/><path class="b" d="M394.5485,176.4684H263.2691a3.6409,3.6409,0,0,1-3.242-5.2977l26.4458-51.7454a3.641,3.641,0,0,0,0-3.3138L260.0271,64.3661a3.6408,3.6408,0,0,1,3.242-5.2976H394.5485a3.6406,3.6406,0,0,1,3.2419,1.9839L425.93,116.1115a3.641,3.641,0,0,1,0,3.3138L397.79,174.4844A3.6407,3.6407,0,0,1,394.5485,176.4684Z"/><path class="b" d="M551.5725,176.4684H420.2931a3.6408,3.6408,0,0,1-3.242-5.2977l26.4457-51.7454a3.641,3.641,0,0,0,0-3.3138L417.0511,64.3661a3.6408,3.6408,0,0,1,3.242-5.2976H551.5725a3.6407,3.6407,0,0,1,3.2419,1.9839l28.1393,55.0591a3.641,3.641,0,0,1,0,3.3138l-28.1393,55.0591A3.6408,3.6408,0,0,1,551.5725,176.4684Z"/><path class="b" d="M708.5964,176.4684H577.317a3.6408,3.6408,0,0,1-3.2419-5.2977l26.4457-51.7454a3.641,3.641,0,0,0,0-3.3138L574.0751,64.3661a3.6407,3.6407,0,0,1,3.2419-5.2976H708.5964a3.6407,3.6407,0,0,1,3.242,1.9839l28.1393,55.0591a3.641,3.641,0,0,1,0,3.3138l-28.1393,55.0591A3.6408,3.6408,0,0,1,708.5964,176.4684Z"/><path class="b" d="M865.62,176.4684H734.341a3.6408,3.6408,0,0,1-3.2419-5.2977l26.4457-51.7454a3.641,3.641,0,0,0,0-3.3138L731.0991,64.3661a3.6407,3.6407,0,0,1,3.2419-5.2976H865.62a3.6409,3.6409,0,0,1,3.242,1.9839l28.1392,55.0591a3.64,3.64,0,0,1,0,3.3138l-28.1392,55.0591A3.641,3.641,0,0,1,865.62,176.4684Z"/><path class="c" d="M144.9835,144.7807l-1.3067,1.3555-.8164-.8516,2.3027-2.3262h1.2237v8h-1.4033Z"/><path class="c" d="M148.7042,149.4115a.8389.8389,0,1,1-.84.8379A.849.849,0,0,1,148.7042,149.4115Z"/><path class="c" d="M153.7559,146.9643a4.0215,4.0215,0,0,1,4.1377-4.1387,3.6469,3.6469,0,0,1,3.2744,1.7988l-1.1992.6133a2.4,2.4,0,0,0-2.0752-1.164,2.8975,2.8975,0,0,0,0,5.7812,2.3753,2.3753,0,0,0,2.0752-1.1641l1.1992.6114a3.6572,3.6572,0,0,1-3.2744,1.7988A4.02,4.02,0,0,1,153.7559,146.9643Z"/><path class="c" d="M161.9044,148.0561a2.9811,2.9811,0,1,1,2.9746,3.0449A2.9,2.9,0,0,1,161.9044,148.0561Zm4.6533,0a1.69,1.69,0,1,0-1.6787,1.93A1.7393,1.7393,0,0,0,166.5577,148.0561Z"/><path class="c" d="M169.44,146.269h-.959v-1.1035h.959v-.3243a1.7869,1.7869,0,0,1,1.835-2.0019,2.1025,2.1025,0,0,1,1.0078.2265l-.2754.9239a1.0111,1.0111,0,0,0-.5039-.1192c-.4922,0-.8037.3223-.8037.9707v.3243h1.1758v1.1035h-1.1758v4.6894h-1.26Zm3.6944,0h-.959v-1.1035h.959v-.3243a1.7868,1.7868,0,0,1,1.8349-2.0019,2.105,2.105,0,0,1,1.0078.2265l-.2763.9239a1.0065,1.0065,0,0,0-.5039-.1192c-.4913,0-.8028.3223-.8028.9707v.3243h1.1748v1.1035h-1.1748v4.6894h-1.26Z"/><path class="c" d="M179.11,145.0209a2.8706,2.8706,0,0,1,2.8545,3.1543v.3008h-4.4736a1.7547,1.7547,0,0,0,1.8476,1.5937,2.4468,2.4468,0,0,0,1.6426-.6347l.5762.8281a3.3815,3.3815,0,0,1-2.3506.8379,3.0409,3.0409,0,0,1-.0967-6.08Zm-1.6308,2.5664h3.2626a1.55,1.55,0,0,0-1.6318-1.5351A1.5986,1.5986,0,0,0,177.48,147.5873Z"/><path class="c" d="M185.794,145.0209a2.8706,2.8706,0,0,1,2.8545,3.1543v.3008h-4.4736a1.7546,1.7546,0,0,0,1.8476,1.5937,2.4468,2.4468,0,0,0,1.6426-.6347l.5762.8281a3.3815,3.3815,0,0,1-2.3506.8379,3.0409,3.0409,0,0,1-.0967-6.08Zm-1.6309,2.5664h3.2627a1.55,1.55,0,0,0-1.6318-1.5351A1.5987,1.5987,0,0,0,184.1631,147.5873Z"/><path class="c" d="M197.0616,150.1655a2.3442,2.3442,0,0,1-1.8594.9355c-1.4863,0-2.5781-1.127-2.5781-3.0332,0-1.8711,1.0791-3.0469,2.5781-3.0469a2.3254,2.3254,0,0,1,1.8594.9473v-3.01h1.26v8h-1.26Zm0-3.25a1.9032,1.9032,0,0,0-1.499-.7793,1.9513,1.9513,0,0,0,0,3.85,1.8934,1.8934,0,0,0,1.499-.7676Z"/><path class="c" d="M203.4932,150.3334a2.4438,2.4438,0,0,1-1.8711.7676,1.9233,1.9233,0,0,1-2.0146-1.918,1.8646,1.8646,0,0,1,2.0146-1.8828,2.3913,2.3913,0,0,1,1.8711.7442v-.8653c0-.67-.5517-1.0781-1.3545-1.0781a2.3772,2.3772,0,0,0-1.7158.7305l-.5156-.875a3.45,3.45,0,0,1,2.4346-.9356c1.2832,0,2.4111.5391,2.4111,2.1v3.8379h-1.26Zm0-1.57a1.6917,1.6917,0,0,0-1.3789-.6,1.053,1.053,0,1,0,0,2.0742,1.6917,1.6917,0,0,0,1.3789-.6Z"/><path class="c" d="M206.64,149.6147V146.269h-.96v-1.1035h.96v-1.584h1.2588v1.584h1.1758v1.1035h-1.1758v3.0332c0,.3965.1924.6836.5518.6836a.813.813,0,0,0,.5634-.2032l.3008.9473a1.66,1.66,0,0,1-1.1875.3711A1.3355,1.3355,0,0,1,206.64,149.6147Z"/><path class="c" d="M212.794,145.0209a2.8706,2.8706,0,0,1,2.8545,3.1543v.3008h-4.4736a1.7537,1.7537,0,0,0,1.8466,1.5937,2.4512,2.4512,0,0,0,1.6436-.6347l.5752.8281a3.3781,3.3781,0,0,1-2.3506.8379,3.0409,3.0409,0,0,1-.0957-6.08Zm-1.6309,2.5664h3.2618a1.5487,1.5487,0,0,0-1.6309-1.5351A1.598,1.598,0,0,0,211.1631,147.5873Z"/><path class="c" d="M291.1085,149.8549c3.1064-2.3516,4.3173-3.3945,4.3173-4.5449a1.288,1.288,0,0,0-1.4511-1.2246,2.7826,2.7826,0,0,0-2.1592.959L291,144.1225a3.8338,3.8338,0,0,1,2.95-1.2832c1.5478,0,2.9033.875,2.9033,2.4707,0,1.4746-1.3555,2.793-3.503,4.4121h3.5508v1.2363h-5.7929Z"/><path class="c" d="M299.1114,149.4115a.8389.8389,0,1,1-.84.8379A.849.849,0,0,1,299.1114,149.4115Z"/><path class="c" d="M308.254,142.8256a4.138,4.138,0,1,1-4.09,4.1387A3.97,3.97,0,0,1,308.254,142.8256Zm0,1.2481a2.9015,2.9015,0,1,0,2.65,2.8906A2.6505,2.6505,0,0,0,308.254,144.0737Z"/><path class="c" d="M317.5782,147.3354c0-.8985-.4561-1.1992-1.1641-1.1992a1.9111,1.9111,0,0,0-1.4873.7793v4.0429H313.668v-5.7929h1.2588v.791a2.7442,2.7442,0,0,1,2.0391-.9356,1.67,1.67,0,0,1,1.8711,1.8594v4.0781h-1.2588Z"/><path class="c" d="M320.0157,147.5151h2.8789v1.08h-2.8789Z"/><path class="c" d="M324.1436,149.2905a2.99,2.99,0,0,0,1.9668.8164c.7559,0,1.14-.2754,1.14-.709,0-.502-.6114-.6836-1.3194-.8379-.9951-.2168-2.1826-.4805-2.1826-1.7754,0-.9473.8154-1.7637,2.2783-1.7637a3.3071,3.3071,0,0,1,2.2549.8164l-.5273.8867a2.3351,2.3351,0,0,0-1.7159-.6953c-.6591,0-1.0791.24-1.0791.6485,0,.4433.5762.6,1.26.7539,1.0068.2168,2.2422.5039,2.2422,1.8711,0,1.0195-.8516,1.7988-2.41,1.7988a3.5209,3.5209,0,0,1-2.4824-.8984Z"/><path class="c" d="M329.5792,143.4252a.7859.7859,0,0,1,.7793-.7793.78.78,0,0,1,0,1.5606A.7876.7876,0,0,1,329.5792,143.4252Zm.1562,1.74h1.2588v5.7929h-1.2588Z"/><path class="c" d="M332.879,149.6147V146.269h-.959v-1.1035h.959v-1.584h1.26v1.584h1.1748v1.1035h-1.1748v3.0332c0,.3965.1914.6836.5518.6836a.8152.8152,0,0,0,.5635-.2032l.3.9473a1.6568,1.6568,0,0,1-1.1875.3711A1.3355,1.3355,0,0,1,332.879,149.6147Z"/><path class="c" d="M339.0333,145.0209a2.8706,2.8706,0,0,1,2.8545,3.1543v.3008h-4.4737a1.7548,1.7548,0,0,0,1.8477,1.5937,2.447,2.447,0,0,0,1.6426-.6347l.5761.8281a3.3812,3.3812,0,0,1-2.3506.8379,3.0409,3.0409,0,0,1-.0966-6.08Zm-1.6309,2.5664h3.2627a1.55,1.55,0,0,0-1.6318-1.5351A1.598,1.598,0,0,0,337.4024,147.5873Z"/><path class="c" d="M346.0674,143.4252a.7793.7793,0,1,1,.7793.7813A.7853.7853,0,0,1,346.0674,143.4252Zm.1553,1.74h1.26v5.7929h-1.26Z"/><path class="c" d="M353.0245,147.3354c0-.8985-.4561-1.1992-1.1631-1.1992a1.911,1.911,0,0,0-1.4873.7793v4.0429h-1.26v-5.7929h1.26v.791a2.7424,2.7424,0,0,1,2.039-.9356,1.67,1.67,0,0,1,1.8711,1.8594v4.0781h-1.26Z"/><path class="c" d="M356.17,149.6147V146.269h-.959v-1.1035h.959v-1.584h1.26v1.584h1.1749v1.1035H357.43v3.0332c0,.3965.1915.6836.5518.6836a.815.815,0,0,0,.5635-.2032l.3.9473a1.6568,1.6568,0,0,1-1.1875.3711A1.3355,1.3355,0,0,1,356.17,149.6147Z"/><path class="c" d="M362.3253,145.0209a2.8706,2.8706,0,0,1,2.8544,3.1543v.3008h-4.4736a1.7538,1.7538,0,0,0,1.8467,1.5937,2.4514,2.4514,0,0,0,1.6436-.6347l.5751.8281a3.3777,3.3777,0,0,1-2.3505.8379,3.0409,3.0409,0,0,1-.0957-6.08Zm-1.6309,2.5664h3.2617a1.5486,1.5486,0,0,0-1.6308-1.5351A1.598,1.598,0,0,0,360.6944,147.5873Z"/><path class="c" d="M366.43,145.1655h1.26v.8515a2.4709,2.4709,0,0,1,1.8828-.9844v1.2481a1.8786,1.8786,0,0,0-.3955-.0371,2.0046,2.0046,0,0,0-1.4873.7676v3.9472h-1.26Z"/><path class="c" d="M369.7549,145.1655h1.3428l1.6914,4.3417,1.69-4.3417h1.3554l-2.3623,5.7929h-1.3555Z"/><path class="c" d="M376.4747,143.4252a.7793.7793,0,1,1,.7793.7813A.7852.7852,0,0,1,376.4747,143.4252Zm.1552,1.74h1.26v5.7929h-1.26Z"/><path class="c" d="M382.1006,145.0209a2.8706,2.8706,0,0,1,2.8545,3.1543v.3008h-4.4736a1.7538,1.7538,0,0,0,1.8467,1.5937,2.4509,2.4509,0,0,0,1.6435-.6347l.5752.8281a3.3778,3.3778,0,0,1-2.3505.8379,3.0409,3.0409,0,0,1-.0958-6.08Zm-1.6308,2.5664h3.2617a1.5486,1.5486,0,0,0-1.6309-1.5351A1.598,1.598,0,0,0,380.47,147.5873Z"/><path class="c" d="M389.9122,146.7123l-1.3438,4.2461h-1.3193l-1.7988-5.7929h1.3076l1.2226,4.2089,1.38-4.2089h1.1035l1.3789,4.2089,1.2237-4.2089h1.3066l-1.7988,5.7929h-1.3194Z"/><path class="c" d="M453.085,148.8832a2.9863,2.9863,0,0,0,2.2188.9717c1.0556,0,1.667-.4795,1.667-1.2236,0-.791-.6358-1.127-1.7744-1.127-.336,0-.8047,0-.9239.0117v-1.2588c.1436.0118.6114.0118.9239.0118.9355,0,1.6425-.3243,1.6425-1.0557,0-.7432-.72-1.127-1.6191-1.127a2.81,2.81,0,0,0-2.0625.8877l-.72-.8759a3.7019,3.7019,0,0,1,2.914-1.2588c1.7276,0,2.8906.8154,2.8906,2.1582a1.9536,1.9536,0,0,1-1.7392,1.8349,2.0109,2.0109,0,0,1,1.8594,1.9434c0,1.3555-1.1641,2.3262-3.0108,2.3262a3.7081,3.7081,0,0,1-3.0224-1.2949Z"/><path class="c" d="M460.3926,149.4115a.8394.8394,0,1,1-.84.8389A.849.849,0,0,1,460.3926,149.4115Z"/><path class="c" d="M468.5987,147.9721h-1.3906v2.9863h-1.4034v-8h3.5147a2.4284,2.4284,0,0,1,2.6133,2.5069,2.2415,2.2415,0,0,1-1.8946,2.35l1.9551,3.1426h-1.6191Zm.5283-3.7783h-1.9189v2.5429h1.9189a1.2748,1.2748,0,1,0,0-2.5429Z"/><path class="c" d="M475.5225,145.0219a2.87,2.87,0,0,1,2.8555,3.1543v.3h-4.4746a1.7554,1.7554,0,0,0,1.8476,1.5947,2.4477,2.4477,0,0,0,1.6426-.6357l.5762.8281a3.3774,3.3774,0,0,1-2.3506.8389,3.0409,3.0409,0,0,1-.0967-6.08Zm-1.6308,2.5664h3.2627a1.55,1.55,0,0,0-1.6319-1.5352A1.5987,1.5987,0,0,0,473.8917,147.5883Z"/><path class="c" d="M479.9288,146.269h-.96v-1.1035h.96v-.3233a1.787,1.787,0,0,1,1.834-2.0029,2.0909,2.0909,0,0,1,1.0078.2275l-.2754.9238a1.013,1.013,0,0,0-.5039-.12c-.4922,0-.8037.3233-.8037.9717v.3233h1.1757v1.1035h-1.1757v4.6894h-1.2588Z"/><path class="c" d="M485.9034,145.0219a2.87,2.87,0,0,1,2.8535,3.1543v.3h-4.4727a1.7546,1.7546,0,0,0,1.8467,1.5947,2.4521,2.4521,0,0,0,1.6436-.6357l.5752.8281a3.3741,3.3741,0,0,1-2.3506.8389,3.0409,3.0409,0,0,1-.0957-6.08Zm-1.6309,2.5664h3.2617a1.5492,1.5492,0,0,0-1.6308-1.5352A1.5968,1.5968,0,0,0,484.2725,147.5883Z"/><path class="c" d="M490.0089,145.1655h1.2587v.8515a2.4766,2.4766,0,0,1,1.8838-.9834v1.2471a1.8956,1.8956,0,0,0-.3965-.0361,2.0033,2.0033,0,0,0-1.4873.7675v3.9463h-1.2587Z"/><path class="c" d="M496.751,145.0219a2.87,2.87,0,0,1,2.8536,3.1543v.3h-4.4727a1.7546,1.7546,0,0,0,1.8467,1.5947,2.4519,2.4519,0,0,0,1.6435-.6357l.5752.8281a3.3739,3.3739,0,0,1-2.3506.8389,3.0409,3.0409,0,0,1-.0957-6.08Zm-1.6308,2.5664h3.2617a1.5493,1.5493,0,0,0-1.6309-1.5352A1.5967,1.5967,0,0,0,495.12,147.5883Z"/><path class="c" d="M504.7667,147.3363c0-.8994-.4571-1.1992-1.1641-1.1992a1.9084,1.9084,0,0,0-1.4873.7793v4.042h-1.2588v-5.7929h1.2588v.7919a2.741,2.741,0,0,1,2.0391-.9355,1.67,1.67,0,0,1,1.8711,1.8584v4.0781h-1.2588Z"/><path class="c" d="M510.2979,145.0219a2.5961,2.5961,0,0,1,2.2188,1.0312l-.8272.7676a1.5447,1.5447,0,0,0-1.331-.6836,1.9334,1.9334,0,0,0,0,3.85,1.5723,1.5723,0,0,0,1.331-.6836l.8272.7676a2.5959,2.5959,0,0,1-2.2188,1.0313,3.04,3.04,0,0,1,0-6.08Z"/><path class="c" d="M516.2022,145.0219a2.87,2.87,0,0,1,2.8555,3.1543v.3h-4.4746a1.7554,1.7554,0,0,0,1.8476,1.5947,2.4477,2.4477,0,0,0,1.6426-.6357l.5762.8281a3.3776,3.3776,0,0,1-2.3506.8389,3.0409,3.0409,0,0,1-.0967-6.08Zm-1.6308,2.5664h3.2626a1.55,1.55,0,0,0-1.6318-1.5352A1.5987,1.5987,0,0,0,514.5714,147.5883Z"/><path class="c" d="M526.03,145.0219a2.5986,2.5986,0,0,1,2.2188,1.0312l-.8281.7676a1.5443,1.5443,0,0,0-1.33-.6836,1.9333,1.9333,0,0,0,0,3.85,1.572,1.572,0,0,0,1.33-.6836l.8281.7676a2.5984,2.5984,0,0,1-2.2188,1.0313,3.04,3.04,0,0,1,0-6.08Z"/><path class="c" d="M532.8936,150.3344a2.4438,2.4438,0,0,1-1.8711.7676,1.9241,1.9241,0,0,1-2.0146-1.919,1.8652,1.8652,0,0,1,2.0146-1.8828,2.3942,2.3942,0,0,1,1.8711.7442V147.18c0-.6709-.5517-1.0791-1.3555-1.0791a2.374,2.374,0,0,0-1.7148.7314l-.5156-.875a3.4459,3.4459,0,0,1,2.4345-.9355c1.2833,0,2.4112.5391,2.4112,2.0986v3.8379h-1.26Zm0-1.57a1.6938,1.6938,0,0,0-1.3789-.6006,1.0534,1.0534,0,1,0,0,2.0752,1.696,1.696,0,0,0,1.3789-.6Z"/><path class="c" d="M535.7881,142.9584h1.2588v8h-1.2588Z"/><path class="c" d="M538.6788,142.9584h1.26v8h-1.26Z"/><path class="c" d="M613.3643,149.1479H609.55V148.019l3.2871-5.0606h1.93v4.9531h1.0683v1.2364h-1.0683v1.8105h-1.4024Zm-2.4355-1.2364h2.4355v-3.6933Z"/><path class="c" d="M617.6378,149.4115a.8389.8389,0,1,1-.84.8379A.85.85,0,0,1,617.6378,149.4115Z"/><path class="c" d="M622.6905,146.9643a4.0207,4.0207,0,0,1,4.1367-4.1387,3.6487,3.6487,0,0,1,3.2754,1.7988l-1.2.6133a2.4,2.4,0,0,0-2.0752-1.164,2.8975,2.8975,0,0,0,0,5.7812,2.3753,2.3753,0,0,0,2.0752-1.1641l1.2.6114a3.66,3.66,0,0,1-3.2754,1.7988A4.0191,4.0191,0,0,1,622.6905,146.9643Z"/><path class="c" d="M634.7354,150.3334a2.4438,2.4438,0,0,1-1.8711.7676,1.9233,1.9233,0,0,1-2.0146-1.918,1.8646,1.8646,0,0,1,2.0146-1.8828,2.3942,2.3942,0,0,1,1.8711.7442v-.8653c0-.67-.5517-1.0781-1.3555-1.0781a2.3766,2.3766,0,0,0-1.7148.7305l-.5156-.875a3.45,3.45,0,0,1,2.4345-.9356c1.2832,0,2.4112.5391,2.4112,2.1v3.8379h-1.26Zm0-1.57a1.6931,1.6931,0,0,0-1.3789-.6,1.053,1.053,0,1,0,0,2.0742,1.6931,1.6931,0,0,0,1.3789-.6Z"/><path class="c" d="M641.54,147.3354c0-.8985-.457-1.1992-1.1641-1.1992a1.9111,1.9111,0,0,0-1.4873.7793v4.0429H637.63v-5.7929h1.2588v.791a2.7444,2.7444,0,0,1,2.0391-.9356,1.67,1.67,0,0,1,1.8711,1.8594v4.0781H641.54Z"/><path class="c" d="M648.5108,150.1655a2.3442,2.3442,0,0,1-1.8594.9355c-1.4863,0-2.5781-1.127-2.5781-3.0332,0-1.8711,1.08-3.0469,2.5781-3.0469a2.3226,2.3226,0,0,1,1.8594.9473v-3.01h1.26v8h-1.26Zm0-3.25a1.9017,1.9017,0,0,0-1.499-.7793,1.9513,1.9513,0,0,0,0,3.85,1.8919,1.8919,0,0,0,1.499-.7676Z"/><path class="c" d="M651.2491,143.4252a.7861.7861,0,0,1,.78-.7793.78.78,0,0,1,0,1.5606A.7878.7878,0,0,1,651.2491,143.4252Zm.1562,1.74h1.26v5.7929h-1.26Z"/><path class="c" d="M658.3751,150.1655a2.3471,2.3471,0,0,1-1.8594.9355c-1.4873,0-2.5791-1.127-2.5791-3.0332,0-1.8711,1.08-3.0469,2.5791-3.0469a2.3254,2.3254,0,0,1,1.8594.9473v-3.01h1.2588v8h-1.2588Zm0-3.25a1.9034,1.9034,0,0,0-1.4991-.7793,1.9513,1.9513,0,0,0,0,3.85,1.8936,1.8936,0,0,0,1.4991-.7676Z"/><path class="c" d="M664.8077,150.3334a2.444,2.444,0,0,1-1.8711.7676,1.924,1.924,0,0,1-2.0156-1.918,1.8654,1.8654,0,0,1,2.0156-1.8828,2.3942,2.3942,0,0,1,1.8711.7442v-.8653c0-.67-.5528-1.0781-1.3555-1.0781a2.375,2.375,0,0,0-1.7148.7305l-.5157-.875a3.446,3.446,0,0,1,2.4336-.9356c1.2832,0,2.4112.5391,2.4112,2.1v3.8379h-1.2588Zm0-1.57a1.6951,1.6951,0,0,0-1.38-.6,1.053,1.053,0,1,0,0,2.0742,1.6951,1.6951,0,0,0,1.38-.6Z"/><path class="c" d="M667.9522,149.6147V146.269h-.959v-1.1035h.959v-1.584h1.26v1.584h1.1758v1.1035H669.212v3.0332c0,.3965.1914.6836.5517.6836a.815.815,0,0,0,.5635-.2032l.3.9473a1.6556,1.6556,0,0,1-1.1865.3711A1.3358,1.3358,0,0,1,667.9522,149.6147Z"/><path class="c" d="M674.1075,145.0209a2.8706,2.8706,0,0,1,2.8545,3.1543v.3008h-4.4737a1.7544,1.7544,0,0,0,1.8467,1.5937,2.4474,2.4474,0,0,0,1.6436-.6347l.5752.8281a3.3773,3.3773,0,0,1-2.35.8379,3.0409,3.0409,0,0,1-.0967-6.08Zm-1.6309,2.5664h3.2627a1.55,1.55,0,0,0-1.6318-1.5351A1.598,1.598,0,0,0,672.4766,147.5873Z"/><path class="c" d="M683.9346,145.0209a2.5982,2.5982,0,0,1,2.2188,1.0313l-.8272.7675a1.5468,1.5468,0,0,0-1.331-.6835,1.9334,1.9334,0,0,0,0,3.85,1.57,1.57,0,0,0,1.331-.6836l.8272.7675a2.5932,2.5932,0,0,1-2.2188,1.0313,3.04,3.04,0,0,1,0-6.08Z"/><path class="c" d="M690.7979,150.3334a2.4438,2.4438,0,0,1-1.8711.7676,1.9225,1.9225,0,0,1-2.0137-1.918,1.8639,1.8639,0,0,1,2.0137-1.8828,2.3913,2.3913,0,0,1,1.8711.7442v-.8653c0-.67-.5508-1.0781-1.3545-1.0781a2.3788,2.3788,0,0,0-1.7158.7305l-.5156-.875a3.4506,3.4506,0,0,1,2.4355-.9356c1.2832,0,2.41.5391,2.41,2.1v3.8379h-1.26Zm0-1.57a1.6917,1.6917,0,0,0-1.3789-.6,1.0529,1.0529,0,1,0,0,2.0742,1.6917,1.6917,0,0,0,1.3789-.6Z"/><path class="c" d="M693.6924,142.9584h1.26v8h-1.26Z"/><path class="c" d="M696.585,142.9584h1.2588v8H696.585Z"/><path class="c" d="M766.7842,148.9076a2.7583,2.7583,0,0,0,2.1582.9473,1.4743,1.4743,0,0,0,1.6426-1.4033,1.426,1.426,0,0,0-1.6064-1.4268,2.4069,2.4069,0,0,0-1.751.6953l-.9961-.288v-4.4737h5.2422v1.2354h-3.8379v2.3154a2.6031,2.6031,0,0,1,1.8106-.6963,2.4808,2.4808,0,0,1,2.5546,2.5791c0,1.667-1.26,2.71-3.0468,2.71a3.6572,3.6572,0,0,1-2.9746-1.2354Z"/><path class="c" d="M773.9717,149.4115a.8394.8394,0,1,1-.84.8389A.8505.8505,0,0,1,773.9717,149.4115Z"/><path class="c" d="M779.3839,142.9584h3.5136a2.5091,2.5091,0,1,1,0,5.0137h-2.11v2.9863h-1.4033Zm3.3222,1.2354h-1.9189v2.5429h1.9189a1.2748,1.2748,0,1,0,0-2.5429Z"/><path class="c" d="M786.6436,145.1655h1.26v.8515a2.4727,2.4727,0,0,1,1.8828-.9834v1.2471a1.8888,1.8888,0,0,0-.3965-.0361,2.001,2.001,0,0,0-1.4863.7675v3.9463h-1.26Z"/><path class="c" d="M793.3858,145.0219a2.87,2.87,0,0,1,2.8545,3.1543v.3h-4.4736a1.7548,1.7548,0,0,0,1.8476,1.5947,2.4515,2.4515,0,0,0,1.6426-.6357l.5762.8281a3.3784,3.3784,0,0,1-2.3516.8389,3.0409,3.0409,0,0,1-.0957-6.08Zm-1.6309,2.5664h3.2618a1.5488,1.5488,0,0,0-1.6309-1.5352A1.5982,1.5982,0,0,0,791.7549,147.5883Z"/><path class="c" d="M797.4913,153.1655v-8h1.26v.7919a2.3107,2.3107,0,0,1,1.8594-.9355c1.4981,0,2.5664,1.1269,2.5664,3.0342s-1.0683,3.0459-2.5664,3.0459a2.2718,2.2718,0,0,1-1.8594-.9473v3.0108Zm2.7461-7.0284a1.8774,1.8774,0,0,0-1.4864.7793v2.291a1.9105,1.9105,0,0,0,1.4864.7793,1.9511,1.9511,0,0,0,0-3.85Z"/><path class="c" d="M810.1739,145.0219a2.5958,2.5958,0,0,1,2.2187,1.0312l-.8271.7676a1.5464,1.5464,0,0,0-1.332-.6836,1.9335,1.9335,0,0,0,0,3.85,1.5741,1.5741,0,0,0,1.332-.6836l.8271.7676a2.5956,2.5956,0,0,1-2.2187,1.0313,3.04,3.04,0,0,1,0-6.08Z"/><path class="c" d="M817.0372,150.3344a2.444,2.444,0,0,1-1.8711.7676,1.9241,1.9241,0,0,1-2.0147-1.919,1.8653,1.8653,0,0,1,2.0147-1.8828,2.3914,2.3914,0,0,1,1.8711.7442V147.18c0-.6709-.5518-1.0791-1.3545-1.0791a2.3744,2.3744,0,0,0-1.7158.7314l-.5157-.875a3.4427,3.4427,0,0,1,2.4346-.9355c1.2832,0,2.41.5391,2.41,2.0986v3.8379h-1.2588Zm0-1.57a1.6946,1.6946,0,0,0-1.38-.6006,1.0533,1.0533,0,1,0,0,2.0752,1.6968,1.6968,0,0,0,1.38-.6Z"/><path class="c" d="M823.8409,147.3363c0-.8994-.4561-1.1992-1.1641-1.1992a1.9063,1.9063,0,0,0-1.4863.7793v4.042h-1.26v-5.7929h1.26v.7919a2.7374,2.7374,0,0,1,2.0391-.9355,1.67,1.67,0,0,1,1.871,1.8584v4.0781h-1.26Z"/><path class="c" d="M830.8135,150.1664a2.3467,2.3467,0,0,1-1.8593.9356c-1.4873,0-2.5791-1.127-2.5791-3.0342,0-1.8711,1.0791-3.0459,2.5791-3.0459a2.3276,2.3276,0,0,1,1.8593.9473v-3.0108h1.2588v8h-1.2588Zm0-3.25a1.9068,1.9068,0,0,0-1.5-.7793,1.9513,1.9513,0,0,0,0,3.85,1.8967,1.8967,0,0,0,1.5-.7675Z"/><path class="c" d="M833.5508,143.4262a.7862.7862,0,0,1,.78-.7793.78.78,0,0,1,0,1.56A.787.787,0,0,1,833.5508,143.4262Zm.1553,1.7393h1.26v5.7929h-1.26Z"/><path class="c" d="M840.6768,150.1664a2.3439,2.3439,0,0,1-1.8594.9356c-1.4863,0-2.5781-1.127-2.5781-3.0342,0-1.8711,1.0791-3.0459,2.5781-3.0459a2.325,2.325,0,0,1,1.8594.9473v-3.0108h1.26v8h-1.26Zm0-3.25a1.9055,1.9055,0,0,0-1.5-.7793,1.9513,1.9513,0,0,0,0,3.85,1.8953,1.8953,0,0,0,1.5-.7675Z"/><path class="c" d="M847.1085,150.3344a2.4441,2.4441,0,0,1-1.8711.7676,1.9241,1.9241,0,0,1-2.0147-1.919,1.8653,1.8653,0,0,1,2.0147-1.8828,2.3943,2.3943,0,0,1,1.8711.7442V147.18c0-.6709-.5518-1.0791-1.3555-1.0791a2.3742,2.3742,0,0,0-1.7149.7314l-.5156-.875a3.4459,3.4459,0,0,1,2.4346-.9355c1.2832,0,2.4111.5391,2.4111,2.0986v3.8379h-1.26Zm0-1.57a1.6939,1.6939,0,0,0-1.3789-.6006,1.0534,1.0534,0,1,0,0,2.0752,1.6962,1.6962,0,0,0,1.3789-.6Z"/><path class="c" d="M850.2549,149.6156V146.269h-.96v-1.1035h.96v-1.5831h1.2588v1.5831h1.1748v1.1035h-1.1748v3.0341c0,.3956.1924.6836.5518.6836a.8093.8093,0,0,0,.5635-.2041l.3.9483a1.6614,1.6614,0,0,1-1.1875.3711A1.3353,1.3353,0,0,1,850.2549,149.6156Z"/><path class="c" d="M856.4092,145.0219a2.87,2.87,0,0,1,2.8536,3.1543v.3H854.79a1.7546,1.7546,0,0,0,1.8467,1.5947,2.4519,2.4519,0,0,0,1.6435-.6357l.5752.8281a3.3739,3.3739,0,0,1-2.3506.8389,3.0409,3.0409,0,0,1-.0957-6.08Zm-1.6308,2.5664H858.04a1.5493,1.5493,0,0,0-1.6309-1.5352A1.5961,1.5961,0,0,0,854.7784,147.5883Z"/><path class="d" d="M362.5681,85.8093V77.01a3.2421,3.2421,0,0,0-3.3321-3.2036l-10.3746.176h-20.75a3.24,3.24,0,0,0-3.276,3.2035v44.84a3.24,3.24,0,0,0,3.276,3.2035h25.5238a8.836,8.836,0,0,0,8.933-8.7345V85.8093"/><path class="e" d="M361.0041,85.0956V76.1374a3.2692,3.2692,0,0,0-3.3321-3.2615l-10.3746.1791h-20.75a3.2688,3.2688,0,0,0-3.276,3.2616v45.6522a3.2687,3.2687,0,0,0,3.276,3.2615h25.5238a8.9135,8.9135,0,0,0,8.933-8.8927V85.0956"/><path class="f" d="M357.672,72.8759l-2.0235.0295a3.2649,3.2649,0,0,1,2.8595,3.232v40.2a8.9135,8.9135,0,0,1-8.933,8.8927h2.4961a8.9134,8.9134,0,0,0,8.9329-8.8927v-40.2A3.2691,3.2691,0,0,0,357.672,72.8759Z"/><path class="e" d="M349.6847,122.87c2.5109.0823,4.2777-.4269,5.4554-1.5953"/><g class="g"><path class="h" d="M333.9291,86.2592a1.6318,1.6318,0,1,1-1.6312-1.624,1.6285,1.6285,0,0,1,1.6312,1.624"/><path class="h" d="M333.9291,93.49a1.6318,1.6318,0,1,1-1.6312-1.6252,1.6293,1.6293,0,0,1,1.6312,1.6252"/><path class="h" d="M333.9291,100.5317a1.6318,1.6318,0,1,1-1.6312-1.624,1.6285,1.6285,0,0,1,1.6312,1.624"/><path class="h" d="M333.9291,107.7628a1.6318,1.6318,0,1,1-1.6312-1.6253,1.6293,1.6293,0,0,1,1.6312,1.6253"/><rect class="i" x="336.7328" y="85.5729" width="16.8771" height="1.4064" rx="0.7032"/><rect class="i" x="336.7328" y="92.7871" width="12.7075" height="1.4064" rx="0.7032"/><rect class="i" x="336.7328" y="99.8291" width="16.8771" height="1.4064" rx="0.7032"/><rect class="i" x="336.7328" y="107.0596" width="8.2316" height="1.4064" rx="0.7032"/></g><path class="j" d="M361.0041,85.0956V76.1374a3.2692,3.2692,0,0,0-3.3321-3.2615l-10.3746.1791h-20.75a3.2688,3.2688,0,0,0-3.276,3.2616v45.6522a3.2687,3.2687,0,0,0,3.276,3.2615h25.5238a8.9135,8.9135,0,0,0,8.933-8.8927V85.0956"/><path class="j" d="M361.0041,85.0956V76.1374a3.2692,3.2692,0,0,0-3.3321-3.2615l-10.3746.1791h-20.75a3.2688,3.2688,0,0,0-3.276,3.2616v45.6522a3.2687,3.2687,0,0,0,3.276,3.2615h25.5238a8.9135,8.9135,0,0,0,8.933-8.8927V85.0956"/><path class="k" d="M317.6375,116.4417h25.1559c0,4.8538,3.6485,8.7886,8.1492,8.7886H325.75c-4.5006,0-8.1492-3.9348-8.1492-8.7886"/><path class="l" d="M325.75,122.6785a8.2559,8.2559,0,0,1-7.7991-6.2368h-.35c0,4.8538,3.6486,8.7886,8.1492,8.7886h25.1924a7.8351,7.8351,0,0,1-5.74-2.5518Z"/><line class="m" x1="323.8387" y1="119.0199" x2="337.9264" y2="119.0199"/><g class="g"><path class="n" d="M337.0811,73.15c-.0165.2059-.0269.4134-.0269.6237a7.0674,7.0674,0,1,0,14.121,0c0-.21-.0105-.4178-.027-.6237Z"/></g><path class="o" d="M349.4753,74.02a7.3377,7.3377,0,1,1-7.338-7.3057A7.3222,7.3222,0,0,1,349.4753,74.02Z"/><path class="p" d="M343.0763,81.2622a6.6348,6.6348,0,0,1-.94.0626,7.3058,7.3058,0,1,1,0-14.6115,6.65,6.65,0,0,1,.94.0627,7.299,7.299,0,0,0,0,14.4862Z"/><path class="m" d="M349.4753,74.02a7.3377,7.3377,0,1,1-7.338-7.3057A7.3222,7.3222,0,0,1,349.4753,74.02Z"/><path class="l" d="M342.1364,66.7133a6.6471,6.6471,0,0,0-.94.0627,7.3265,7.3265,0,0,1,6.2112,5.6223l-2.1042-.3058a.5621.5621,0,0,1-.4233-.3074l-.9591-1.9436a.5622.5622,0,0,0-1.0082,0l-.9592,1.9436a.5618.5618,0,0,1-.4232.3074l-2.1448.3117a.5621.5621,0,0,0-.3115.9588l1.552,1.5128a.5619.5619,0,0,1,.1617.4975l-.3664,2.1362a.5621.5621,0,0,0,.8156.5926l1.9184-1.0087a.5623.5623,0,0,1,.523,0l1.9184,1.0087a.5621.5621,0,0,0,.8156-.5926l-.3664-2.1362a.5625.5625,0,0,1,.1617-.4975l1.3667-1.3322c.01.1577.0223.3151.0223.4755,0,3.7187-1.3062,6.0643-6.4,7.2431a6.6323,6.6323,0,0,0,.94.0626,7.3058,7.3058,0,1,0,0-14.6115Z"/><path class="q" d="M342.7609,69.6676l.9592,1.9436a.5621.5621,0,0,0,.4232.3075l2.1448.3116a.5621.5621,0,0,1,.3116.9588l-1.552,1.5128a.562.562,0,0,0-.1617.4975l.3664,2.1362a.5621.5621,0,0,1-.8156.5925L342.5184,76.92a.562.562,0,0,0-.5231,0l-1.9184,1.0085a.5621.5621,0,0,1-.8156-.5925l.3664-2.1362a.562.562,0,0,0-.1617-.4975l-1.552-1.5128a.5621.5621,0,0,1,.3116-.9588l2.1448-.3116a.5621.5621,0,0,0,.4232-.3075l.9592-1.9436A.5621.5621,0,0,1,342.7609,69.6676Z"/><circle class="n" cx="356.7496" cy="119.7699" r="0.75"/><g class="r"><path class="i" d="M540.949,94.0712v20.68a3.593,3.593,0,0,1-3.5936,3.5936H508.0417l-12.6265,6.4112v-6.4112h-2.4861a3.593,3.593,0,0,1-3.5936-3.5936v-20.68a3.5882,3.5882,0,0,1,3.5936-3.5936h44.4263A3.5882,3.5882,0,0,1,540.949,94.0712Z"/></g><path class="o" d="M538.8219,92.59v20.68a3.593,3.593,0,0,1-3.5936,3.5936H505.9146l-12.6265,6.4112V116.864H490.802a3.593,3.593,0,0,1-3.5936-3.5936V92.59a3.5882,3.5882,0,0,1,3.5936-3.5936h44.4263A3.5882,3.5882,0,0,1,538.8219,92.59Z"/><g class="g"><path class="c" d="M491.9727,116.8652h-1.9462c-1.562,0-2.8175-1.6113-2.8175-3.5948V92.5911c0-1.9883,1.2555-3.5949,2.8175-3.5949h3.6929c-1.5621,0-2.8176,1.6066-2.8176,3.5949V113.27C490.6854,116.2543,491.9727,116.8652,491.9727,116.8652Z"/></g><path class="m" d="M538.8219,92.59v20.68a3.593,3.593,0,0,1-3.5936,3.5936H505.9146l-12.6265,6.4112V116.864H490.802a3.593,3.593,0,0,1-3.5936-3.5936V92.59a3.5882,3.5882,0,0,1,3.5936-3.5936h44.4263A3.5882,3.5882,0,0,1,538.8219,92.59Z"/><g class="s"><path class="n" d="M535.5607,88.9968H490.802a3.5858,3.5858,0,0,0-3.5635,3.15,3.9672,3.9672,0,0,1,.4886-.0336h44.4263A3.4368,3.4368,0,0,1,535.747,95.38v18.8A3.19,3.19,0,0,1,534.2,116.864h1.0284a3.593,3.593,0,0,0,3.5936-3.5936V92.258A3.2612,3.2612,0,0,0,535.5607,88.9968Z"/></g><g class="g"><line class="m" x1="528.2134" y1="98.1123" x2="497.0443" y2="98.1123"/><line class="m" x1="509.0744" y1="103.7785" x2="497.0443" y2="103.7785"/><line class="m" x1="528.2134" y1="103.7785" x2="513.7221" y2="103.7785"/><line class="m" x1="528.2134" y1="109.4447" x2="497.0443" y2="109.4447"/></g><path class="t" d="M500.8231,78.4044H468.9546a2.5766,2.5766,0,0,0-2.5766,2.5766V95.4981a2.7413,2.7413,0,0,1,2.5078-1.4031h20.5251c2.9295,0,3.6507,3.4187,2.1735,5.1127l7.4524,3.787V98.3931h1.7863A2.5766,2.5766,0,0,0,503.4,95.8165V80.981A2.5766,2.5766,0,0,0,500.8231,78.4044Z"/><path class="q" d="M467.6957,78.0606h31.8684a2.5766,2.5766,0,0,1,2.5766,2.5766V95.4727a2.5766,2.5766,0,0,1-2.5766,2.5767h-1.7862v4.6015l-9.0554-4.6015H467.6957a2.5766,2.5766,0,0,1-2.5766-2.5767V80.6372A2.5766,2.5766,0,0,1,467.6957,78.0606Z"/><line class="u" x1="498.0685" y1="83.3601" x2="469.1913" y2="83.3601"/><line class="u" x1="480.3368" y1="88.2049" x2="469.1913" y2="88.2049"/><line class="u" x1="498.0685" y1="88.2049" x2="484.6427" y2="88.2049"/><line class="u" x1="498.0685" y1="93.0497" x2="469.1913" y2="93.0497"/><path class="l" d="M502.14,80.6378V95.4746c0,1.423-.8233,2.5726-1.8381,2.5726H497.95c1.0148,0,1.8381-1.15,1.8381-2.5726V80.6378c0-1.4229-.8233-2.5772-1.8381-2.5772h2.3523C501.3167,78.0606,502.14,79.2149,502.14,80.6378Z"/><circle class="n" cx="531.2738" cy="92.4242" r="0.6984"/><circle class="n" cx="491.1794" cy="113.1874" r="0.6984"/><g class="r"><path class="v" d="M674.5266,130.7106c-.1965.1384-2.0838.75-2.1891.7776a6.9336,6.9336,0,0,1-4.418-.1572c-2.0074-.8129-4.0178-1.6478-5.9327-2.6527-2.7644-1.4509-3.5154-3.8634-2.2647-6.7417,1.1629-2.6765,2.3286-5.3521,3.5215-8.0153a4.5909,4.5909,0,0,1,3.3523-2.7965,5.5106,5.5106,0,0,1,3.3948.5014c1.39.6019,2.78,1.2051,4.161,1.8278a.4425.4425,0,0,0,.6363-.15c.48-.615,1.0206-1.1836,1.48-1.8127a34.9636,34.9636,0,0,0,4.2057-7.7591,28.2391,28.2391,0,0,0,2.18-8.3883.5292.5292,0,0,0-.3836-.6343c-1.6408-.7029-3.2972-1.3793-4.8914-2.1781a4.4518,4.4518,0,0,1-2.2575-5.8558c1.1559-2.8849,2.3759-5.7492,3.7014-8.56,1.3116-2.7811,3.5381-3.6782,6.4479-2.6361,1.7973.6437,3.5246,1.4863,5.2712,2.2667a7.8835,7.8835,0,0,1,4.1351,4.363,18.2579,18.2579,0,0,1,1.3154,6.4256c.3318,8.9463-2.0567,17.2452-6.0934,25.1278A49.004,49.004,0,0,1,682.33,124.425a29.5679,29.5679,0,0,1-6.0825,5.2673c-.5911.3685-1.1989.71-1.799,1.0643"/></g><path class="w" d="M656.2094,112.9853a7.7313,7.7313,0,0,1-5.9111-1.7916,19.7254,19.7254,0,0,1-10.723,3.1052c-10.2966,0-18.6428-7.6456-18.6428-17.0786,0-9.4292,8.3462-17.0749,18.6428-17.0749s18.6421,7.6457,18.6421,17.0749a16.136,16.136,0,0,1-4.1542,10.7466v.0037c.0031.1253.088,3.2336,2.2349,4.6254a.2143.2143,0,0,1-.0887.3893"/><path class="q" d="M654.221,112.9853a7.7313,7.7313,0,0,1-5.9111-1.7916,19.7249,19.7249,0,0,1-10.723,3.1052c-10.2965,0-18.6428-7.6456-18.6428-17.0786,0-9.4292,8.3463-17.0749,18.6428-17.0749S656.229,87.7911,656.229,97.22a16.136,16.136,0,0,1-4.1542,10.7466v.0037c.0031.1253.088,3.2336,2.2349,4.6254a.2143.2143,0,0,1-.0887.3893"/><circle class="l" cx="627.8555" cy="97.1648" r="2.7991"/><circle class="l" cx="637.3917" cy="97.1648" r="2.7991"/><circle class="l" cx="646.928" cy="97.1648" r="2.7991"/><path class="j" d="M641.3836,83.3638s-8.6564-2.4079-14.9583,4.0862"/><path class="l" d="M654.22,112.9869a6.7991,6.7991,0,0,1-3.1483-.3016.1947.1947,0,0,0-.0762-.09,5.02,5.02,0,0,1-1.9437-2.9116,3.05,3.05,0,0,1,.5036-2.682,16.0279,16.0279,0,0,0,3.3589-9.7831c0-8.9178-7.463-16.2383-16.984-17.0038.5468-.0464,1.1-.07,1.657-.07,10.2965,0,18.6409,7.6453,18.6409,17.0734a16.1418,16.1418,0,0,1-4.1523,10.7471v.0033c.0033.126.0861,3.2345,2.2336,4.6263A.2153.2153,0,0,1,654.22,112.9869Z"/><circle class="n" cx="643.3142" cy="83.9141" r="0.5694"/><circle class="n" cx="651.1272" cy="104.3643" r="0.5694"/><path class="o" d="M673.6076,128.2045c-.1965.1384-2.0837.75-2.189.7777a6.9339,6.9339,0,0,1-4.4181-.1573c-2.0074-.8129-4.0178-1.6477-5.9326-2.6527-2.7645-1.4509-3.5154-3.8634-2.2648-6.7417,1.163-2.6765,2.3286-5.352,3.5215-8.0152a4.5909,4.5909,0,0,1,3.3523-2.7965,5.51,5.51,0,0,1,3.3948.5013c1.39.602,2.78,1.2052,4.161,1.8278a.4425.4425,0,0,0,.6364-.15c.4794-.615,1.0206-1.1835,1.4794-1.8127a34.9633,34.9633,0,0,0,4.2058-7.759,28.2387,28.2387,0,0,0,2.18-8.3884.5291.5291,0,0,0-.3836-.6342c-1.6407-.7029-3.2972-1.3793-4.8914-2.1782a4.4518,4.4518,0,0,1-2.2575-5.8558c1.1559-2.8849,2.376-5.7492,3.7014-8.56,1.3117-2.7811,3.5382-3.6782,6.4479-2.6361,1.7973.6438,3.5246,1.4864,5.2713,2.2668a7.8834,7.8834,0,0,1,4.1351,4.3629,18.2578,18.2578,0,0,1,1.3153,6.4256c.3318,8.9464-2.0567,17.2453-6.0933,25.1278a49.0078,49.0078,0,0,1-7.569,10.7621,29.5657,29.5657,0,0,1-6.0825,5.2674c-.5911.3685-1.1988.71-1.7989,1.0643"/><g class="s"><path class="v" d="M688.5746,111.1547a48.8239,48.8239,0,0,1-7.57,10.76,29.6984,29.6984,0,0,1-6.08,5.27c-.56.35-1.15.68-1.72,1.02l-.08.04c-.42.2-2.02.71-2.11.74a6.9616,6.9616,0,0,1-4.42-.16c-2.01-.81-4.02-1.65-5.93-2.65a5.773,5.773,0,0,1-2.04-1.67c1.92,1,3.93,1.84,5.93,2.65a6.961,6.961,0,0,0,4.42.16c.1-.03,1.7-.54,2.11-.73l.08-.05c.57-.34,1.16-.67,1.72-1.02a29.4488,29.4488,0,0,0,6.09-5.27,48.8827,48.8827,0,0,0,7.56-10.76c4.04-7.88,6.43-16.18,6.1-25.13a18.1786,18.1786,0,0,0-1.32-6.42,8.4434,8.4434,0,0,0-1.44-2.37,8.0216,8.0216,0,0,1,3.48,4.04,18.1213,18.1213,0,0,1,1.31,6.42C695.0046,94.9747,692.6146,103.2747,688.5746,111.1547Z"/></g><path class="o" d="M681.6588,89.2932c2.3025-1.4583,6.252-7.7793,5.1308-12.1406"/><path class="o" d="M664.9432,125.1954c2.3025-1.4582,6.252-7.7793,5.1308-12.1406"/><circle class="n" cx="669.1888" cy="111.1561" r="0.5694"/><circle class="n" cx="685.9057" cy="75.5647" r="0.5694"/><path class="w" d="M816.5133,78.4282h20.8023a2.1509,2.1509,0,0,1,2.151,2.1509v45.2593a2.151,2.151,0,0,1-2.151,2.151H800.3922a2.151,2.151,0,0,1-2.151-2.151V89.4067l10.7594-10.7594Z"/><path class="q" d="M814.4558,76.7136h20.8023a2.151,2.151,0,0,1,2.151,2.151v45.2592a2.151,2.151,0,0,1-2.151,2.151H798.3347a2.151,2.151,0,0,1-2.151-2.151v-27.22l.151-20.16Z"/><path class="x" d="M801.0776,126.2734h-2.7434a2.1492,2.1492,0,0,1-2.15-2.15V96.9027l.151-20.16,18.12-.0275h2.7434l-18.12.0275-.1509,20.16v27.2206A2.1491,2.1491,0,0,0,801.0776,126.2734Z"/><path class="x" d="M837.41,78.8652v45.2581a2.1491,2.1491,0,0,1-2.15,2.15h-3.0862a2.1491,2.1491,0,0,0,2.15-2.15V78.8652a2.1492,2.1492,0,0,0-2.15-2.15H835.26A2.1492,2.1492,0,0,1,837.41,78.8652Z"/><line class="m" x1="811.4356" y1="111.0985" x2="826.461" y2="111.0985"/><circle class="n" cx="808.1829" cy="111.1616" r="0.9977"/><path class="l" d="M831.5386,93.05a12.3219,12.3219,0,0,1-12.6847,12.5651c-7.56-.1415-12.76-5.5387-12.76-12.5651a12.7225,12.7225,0,1,1,25.445,0Z"/><circle class="n" cx="834.3512" cy="79.4999" r="0.6293"/><circle class="n" cx="808.2395" cy="116.2661" r="0.9977"/><line class="m" x1="811.4356" y1="116.2815" x2="826.461" y2="116.2815"/><path class="y" d="M829.4811,93.05a12.3219,12.3219,0,0,1-12.6847,12.5651c-7.56-.1415-12.76-5.5387-12.76-12.5651a12.7225,12.7225,0,0,1,25.445,0Z"/><path class="k" d="M807.6792,102.0474s3.0013-6.399,9.9666-5.6062c.1435.0163,4.8134.2831,7.7864,6.0026a14.5756,14.5756,0,0,1-9.2021,3.1711C816.1168,105.6149,810.5673,105.1336,807.6792,102.0474Z"/><circle class="q" cx="816.6989" cy="91.568" r="4.5869"/><circle class="m" cx="816.6989" cy="91.568" r="4.5869"/><circle class="n" cx="808.2395" cy="121.3705" r="0.9977"/><line class="m" x1="811.4356" y1="121.3859" x2="819.6026" y2="121.3859"/><circle class="l" cx="802.8045" cy="82.0812" r="9.0086"/><circle class="z" cx="801.5587" cy="80.9486" r="9.0086"/><path class="l" d="M810.5661,80.95c0,4.9723-3.6733,9.0084-8.2055,9.0084a7.3572,7.3572,0,0,1-1.5617-.1646,9.21,9.21,0,0,0,0-17.691,7.3507,7.3507,0,0,1,1.5617-.1646C806.8928,71.9384,810.5661,75.9745,810.5661,80.95Z"/><path class="aa" d="M802.9293,89.8558a9.01,9.01,0,1,1,0-17.8146,9.013,9.013,0,0,0,0,17.8146Z"/><polyline class="m" points="797.747 80.789 800.387 83.345 804.732 79"/><circle class="n" cx="805.3708" cy="86.0705" r="0.71"/><circle class="m" cx="801.5587" cy="80.9486" r="9.0086"/><circle class="n" cx="824.0448" cy="85.6157" r="0.6293"/><path class="ab" d="M823.18,104.1s-1.7869-6.0733-6.5342-7.2625c0,0,5.5874-.8636,8.5744,5.8468Z"/><path class="p" d="M810.0435,103.8028s1.3543-5.861,6.3942-7.05c0,0-5.3608-1.2458-8.532,5.4646Z"/><circle class="k" cx="816.6989" cy="91.568" r="4.5869"/><path class="p" d="M817.7271,96.039a4.5866,4.5866,0,1,1,0-8.94,4.5873,4.5873,0,0,0,0,8.94Z"/><circle class="m" cx="816.6989" cy="91.568" r="4.5869"/><path class="ab" d="M821.2866,91.5674c0,2.5342-1.7876,4.5882-3.9931,4.5882a3.5337,3.5337,0,0,1-1.0445-.1578,4.8,4.8,0,0,0,0-8.8573,3.5338,3.5338,0,0,1,1.0445-.1579C819.499,86.9826,821.2866,89.0332,821.2866,91.5674Z"/><circle class="n" cx="798.8168" cy="74.4249" r="0.6293"/><path class="m" d="M807.6792,102.0474s3.0013-6.399,9.9666-5.6062c.1435.0163,4.8134.2831,7.7864,6.0026a12.9234,12.9234,0,0,1-9.23,3.1428C816.0886,105.584,810.5673,105.1336,807.6792,102.0474Z"/><path class="ac" d="M210.277,90.7309h-31.98v0h-4.4l-.001,0h-.4412a.9156.9156,0,0,0-.9161.9132V93.897c-.3045-.0221-.6118-.0356-.9227-.0356-.1672,0-.3295.0176-.4951.0239-.1945-.0115-.3881-.0263-.5853-.0263a10.6222,10.6222,0,0,0-2.634,20.9112c-.2657-.1482-.5147-.3207-.7657-.49a12.3842,12.3842,0,0,0,2.4523.659,12.8966,12.8966,0,0,0,3.0255.1215,1.3435,1.3435,0,0,0,.6-.2082,15.9356,15.9356,0,0,0,15.2982,11.4255H195.22a15.9622,15.9622,0,0,0,15.97-15.9731v-18.66A.9131.9131,0,0,0,210.277,90.7309Zm-38.6609,19.2508c-3.5323,0-6.3588-2.7436-6.0347-6.0116a5.7815,5.7815,0,0,1,5.0094-4.9119,6.6217,6.6217,0,0,1,1.7212-.0425,1.5649,1.5649,0,0,0,.2268.0027v10.9173a1.32,1.32,0,0,0-.1638.002A6.5435,6.5435,0,0,1,171.6161,109.9817Z"/><path class="o" d="M169.3712,92.9724q.4967,0,.9827.038a1.2592,1.2592,0,0,1,1.2226,1.1964v2.736a1.2919,1.2919,0,0,1-1.5093,1.1838,6.6225,6.6225,0,0,0-1.7213.0426,5.7814,5.7814,0,0,0-5.0094,4.9119c-.3241,3.268,2.5024,6.0116,6.0347,6.0116a6.5422,6.5422,0,0,0,.7589-.044,1.2646,1.2646,0,0,1,1.4464,1.1916v2.7033a1.2616,1.2616,0,0,1-1.2076,1.2276,12.9019,12.9019,0,0,1-3.0255-.1215c-5.1788-.82-9.18-4.7729-9.6253-9.5283C157.1291,98.2377,162.5729,92.9724,169.3712,92.9724Z"/><path class="ad" d="M157.7146,104.52a10.6636,10.6636,0,0,0,7.9422,9.3618,10.6172,10.6172,0,0,1,4.6207-19.893,1.2165,1.2165,0,0,0-1.0938-.9782c-.291-.0252-.5921-.04-.8929-.04A10.6187,10.6187,0,0,0,157.7146,104.52Z"/><path class="ae" d="M169.3712,92.9724q.4967,0,.9827.038a1.2592,1.2592,0,0,1,1.2226,1.1964v2.736a1.2919,1.2919,0,0,1-1.5093,1.1838,6.6225,6.6225,0,0,0-1.7213.0426,5.7814,5.7814,0,0,0-5.0094,4.9119c-.3241,3.268,2.5024,6.0116,6.0347,6.0116a6.5422,6.5422,0,0,0,.7589-.044,1.2646,1.2646,0,0,1,1.4464,1.1916v2.7033a1.2616,1.2616,0,0,1-1.2076,1.2276,12.9019,12.9019,0,0,1-3.0255-.1215c-5.1788-.82-9.18-4.7729-9.6253-9.5283C157.1291,98.2377,162.5729,92.9724,169.3712,92.9724Z"/><path class="o" d="M170.2939,90.7551v18.66a15.9778,15.9778,0,0,0,15.9731,15.973h6.7081a15.9622,15.9622,0,0,0,15.97-15.973v-18.66a.9131.9131,0,0,0-.9132-.9132H171.21A.9156.9156,0,0,0,170.2939,90.7551Z"/><g class="s"><path class="v" d="M208.2481,90.5667H205.25v16.2281a16.9471,16.9471,0,0,1-17.11,16.7413h-6.7609c-.4533,0-.9006-.0174-1.345-.0522a15.821,15.821,0,0,0,6.0172,1.18h6.7609a15.484,15.484,0,0,0,15.6313-15.2947V90.758A.1933.1933,0,0,0,208.2481,90.5667Z"/></g><path class="ad" d="M183.2186,124.9361a16.0949,16.0949,0,0,1-12.5-15.5673V90.7578a.9238.9238,0,0,1,.9332-.9161h4.4v21.8462A15.9085,15.9085,0,0,0,183.2186,124.9361Z"/><path class="ae" d="M170.2939,90.7551v18.66a15.9778,15.9778,0,0,0,15.9731,15.973h6.7081a15.9622,15.9622,0,0,0,15.97-15.973v-18.66a.9131.9131,0,0,0-.9132-.9132H171.21A.9156.9156,0,0,0,170.2939,90.7551Z"/><path class="af" d="M187.3971,89.8593v7.6c0,.9513,1.0575,1.7224,2.362,1.7224h0c1.3044,0,2.3619-.7711,2.3619-1.7224V95.594c0-.5928.659-1.0734,1.4719-1.0734h0c.8129,0,1.472.4806,1.472,1.0734v6.3439c0,1.1048,1.2281,2,2.7431,2h0c1.515,0,2.7432-.8956,2.7432-2V89.8593Z"/><path class="ae" d="M187.3971,89.8593v7.6c0,.9513,1.0575,1.7224,2.362,1.7224h0c1.3044,0,2.3619-.7711,2.3619-1.7224V95.594c0-.5928.659-1.0734,1.4719-1.0734h0c.8129,0,1.472.4806,1.472,1.0734v6.3439c0,1.1048,1.2281,2,2.7431,2h0c1.515,0,2.7432-.8956,2.7432-2V89.8593Z"/><path class="ad" d="M190.9655,98.5183a3.0267,3.0267,0,0,1-1.2376.2554c-1.2871,0-2.3316-.7382-2.3316-1.6478V89.86h2.4752v7.2664A1.6111,1.6111,0,0,0,190.9655,98.5183Z"/><path class="ad" d="M199.8657,103.7457a5.04,5.04,0,0,1-1.4793.2146c-1.787,0-3.2368-.862-3.2368-1.9245v-6.1c0-.1971-1.7282-.6205-1.7282-.6205,2.8057-1.0658,4.6868.6207,4.6868,1.2559v5.4649C198.1082,102.7817,198.8241,103.4291,199.8657,103.7457Z"/><path class="ae" d="M187.3971,89.8593v7.6c0,.9513,1.0575,1.7224,2.362,1.7224h0c1.3044,0,2.3619-.7711,2.3619-1.7224V95.594c0-.5928.659-1.0734,1.4719-1.0734h0c.8129,0,1.472.4806,1.472,1.0734v6.3439c0,1.1048,1.2281,2,2.7431,2h0c1.515,0,2.7432-.8956,2.7432-2V89.8593Z"/></svg>