<svg xmlns="http://www.w3.org/2000/svg" width="1000" height="332.8164" viewBox="0 0 1000 332.8164"><defs><style>.a,.aa,.am,.c,.e,.m,.o,.v{fill:#fff;}.a{stroke:#0b1236;}.a,.ab,.af,.ag,.b{stroke-miterlimit:10;}.a,.b{stroke-width:3.1807px;}.b{fill:#132254;stroke:#132254;}.ah,.al,.an,.ao,.d,.f,.h,.i,.n,.q,.u,.y{fill:#0c1234;}.al,.d,.p,.u{opacity:0.5;}.ab,.ac,.ad,.ae,.af,.ag,.ah,.ak,.al,.am,.ao,.e,.g,.j,.k,.l,.q,.r,.u,.v,.w,.x,.y,.z{stroke:#0c1234;}.ab,.ac,.ad,.ae,.af,.ag,.ah,.ak,.al,.am,.ao,.e,.g,.j,.k,.l,.q,.r,.u,.v,.x,.y{stroke-linecap:round;}.ac,.ad,.ae,.ah,.ak,.al,.am,.ao,.e,.g,.j,.k,.l,.q,.r,.u,.v,.w,.x,.y,.z{stroke-linejoin:round;}.f{opacity:0.1;}.af,.ak,.g,.z{fill:none;}.ah,.an,.i,.o,.s,.v{opacity:0.2;}.j{fill:#6fa1e6;}.k{fill:#4070b9;}.l{fill:#8bdae1;}.m{opacity:0.35;}.aa,.n,.t,.y{opacity:0.3;}.r{fill:#6fa2e7;}.w,.x{fill:#bc90f7;}.ab,.ad{fill:#c2e3fb;}.ac{fill:#4f93ec;}.ae{fill:#dbfdf9;}.ag,.ai{fill:#67bbc8;}.aj{fill:#0b1236;}.ak,.al,.am,.an,.ao{fill-rule:evenodd;}</style></defs><path class="a" d="M392.172,160.5335H260.8926a3.6408,3.6408,0,0,1-3.2419-5.2977L284.0964,103.49a3.641,3.641,0,0,0,0-3.3138L257.6507,48.4312a3.6407,3.6407,0,0,1,3.2419-5.2976H392.172a3.6407,3.6407,0,0,1,3.242,1.9839l28.1393,55.0591a3.641,3.641,0,0,1,0,3.3138L395.414,158.55A3.6408,3.6408,0,0,1,392.172,160.5335Z"/><path class="a" d="M549.196,160.5335H417.9166a3.6408,3.6408,0,0,1-3.2419-5.2977L441.12,103.49a3.641,3.641,0,0,0,0-3.3138L414.6747,48.4312a3.6407,3.6407,0,0,1,3.2419-5.2976H549.196a3.6407,3.6407,0,0,1,3.242,1.9839l28.1393,55.0591a3.641,3.641,0,0,1,0,3.3138L552.438,158.55A3.6408,3.6408,0,0,1,549.196,160.5335Z"/><path class="a" d="M706.22,160.5335H574.9406a3.6408,3.6408,0,0,1-3.2419-5.2977L598.1444,103.49a3.641,3.641,0,0,0,0-3.3138L571.6987,48.4312a3.6407,3.6407,0,0,1,3.2419-5.2976H706.22a3.6406,3.6406,0,0,1,3.2419,1.9839l28.1393,55.0591a3.641,3.641,0,0,1,0,3.3138L709.4619,158.55A3.6407,3.6407,0,0,1,706.22,160.5335Z"/><path class="b" d="M392.172,161.0261H260.8926a3.6408,3.6408,0,0,1-3.2419-5.2977l26.4457-51.7454a3.6408,3.6408,0,0,0,0-3.3137L257.6507,48.9239a3.6408,3.6408,0,0,1,3.2419-5.2977H392.172a3.6409,3.6409,0,0,1,3.242,1.9839l28.1393,55.0592a3.6408,3.6408,0,0,1,0,3.3137L395.414,159.0422A3.6409,3.6409,0,0,1,392.172,161.0261Z"/><path class="b" d="M549.196,161.0261H417.9166a3.6408,3.6408,0,0,1-3.2419-5.2977L441.12,103.983a3.6408,3.6408,0,0,0,0-3.3137L414.6747,48.9239a3.6408,3.6408,0,0,1,3.2419-5.2977H549.196a3.6409,3.6409,0,0,1,3.242,1.9839l28.1393,55.0592a3.6408,3.6408,0,0,1,0,3.3137L552.438,159.0422A3.6409,3.6409,0,0,1,549.196,161.0261Z"/><path class="b" d="M706.22,161.0261H574.9406a3.6408,3.6408,0,0,1-3.2419-5.2977l26.4457-51.7454a3.6408,3.6408,0,0,0,0-3.3137L571.6987,48.9239a3.6408,3.6408,0,0,1,3.2419-5.2977H706.22a3.6408,3.6408,0,0,1,3.2419,1.9839l28.1393,55.0592a3.6408,3.6408,0,0,1,0,3.3137l-28.1393,55.0592A3.6408,3.6408,0,0,1,706.22,161.0261Z"/><path class="a" d="M396.9249,289.19H265.6455a3.6408,3.6408,0,0,1-3.2419-5.2977l26.4457-51.7454a3.6408,3.6408,0,0,0,0-3.3137L262.4036,177.088a3.6408,3.6408,0,0,1,3.2419-5.2977H396.9249a3.6409,3.6409,0,0,1,3.242,1.9839l28.1393,55.0592a3.6408,3.6408,0,0,1,0,3.3137l-28.1393,55.0592A3.6409,3.6409,0,0,1,396.9249,289.19Z"/><path class="a" d="M553.9489,289.19H422.67a3.6408,3.6408,0,0,1-3.2419-5.2977l26.4457-51.7454a3.6408,3.6408,0,0,0,0-3.3137L419.4276,177.088A3.6408,3.6408,0,0,1,422.67,171.79H553.9489a3.641,3.641,0,0,1,3.242,1.9839L585.33,228.8334a3.6408,3.6408,0,0,1,0,3.3137l-28.1392,55.0592A3.641,3.641,0,0,1,553.9489,289.19Z"/><path class="a" d="M710.9729,289.19H579.6935a3.6409,3.6409,0,0,1-3.242-5.2977l26.4458-51.7454a3.6408,3.6408,0,0,0,0-3.3137L576.4515,177.088a3.6409,3.6409,0,0,1,3.242-5.2977H710.9729a3.6408,3.6408,0,0,1,3.2419,1.9839l28.1393,55.0592a3.6408,3.6408,0,0,1,0,3.3137l-28.1393,55.0592A3.6408,3.6408,0,0,1,710.9729,289.19Z"/><path class="b" d="M396.9249,289.6828H265.6455a3.6407,3.6407,0,0,1-3.2419-5.2976L288.8493,232.64a3.641,3.641,0,0,0,0-3.3138l-26.4457-51.7454a3.6408,3.6408,0,0,1,3.2419-5.2977H396.9249a3.6408,3.6408,0,0,1,3.242,1.984l28.1393,55.0591a3.641,3.641,0,0,1,0,3.3138l-28.1393,55.0591A3.6407,3.6407,0,0,1,396.9249,289.6828Z"/><path class="b" d="M553.9489,289.6828H422.67a3.6407,3.6407,0,0,1-3.2419-5.2976L445.8733,232.64a3.641,3.641,0,0,0,0-3.3138l-26.4457-51.7454a3.6408,3.6408,0,0,1,3.2419-5.2977H553.9489a3.641,3.641,0,0,1,3.242,1.984L585.33,229.326a3.641,3.641,0,0,1,0,3.3138l-28.1392,55.0591A3.6409,3.6409,0,0,1,553.9489,289.6828Z"/><path class="b" d="M710.9729,289.6828H579.6935a3.6408,3.6408,0,0,1-3.242-5.2976L602.8973,232.64a3.641,3.641,0,0,0,0-3.3138l-26.4458-51.7454a3.6409,3.6409,0,0,1,3.242-5.2977H710.9729a3.6407,3.6407,0,0,1,3.2419,1.984l28.1393,55.0591a3.641,3.641,0,0,1,0,3.3138l-28.1393,55.0591A3.6406,3.6406,0,0,1,710.9729,289.6828Z"/><path class="c" d="M298.4542,134.8855l-1.3067,1.3555-.8164-.8516,2.3028-2.3271h1.2246v8h-1.4043Z"/><path class="c" d="M302.1749,139.5154a.8394.8394,0,1,1-.84.8389A.85.85,0,0,1,302.1749,139.5154Z"/><path class="c" d="M307.587,133.0623H308.99v8H307.587Z"/><path class="c" d="M314.5694,137.44c0-.8994-.457-1.1992-1.1641-1.1992a1.9085,1.9085,0,0,0-1.4873.7793v4.042h-1.2588v-5.793h1.2588v.792a2.7408,2.7408,0,0,1,2.0391-.9355,1.67,1.67,0,0,1,1.8711,1.8584v4.0781h-1.2588Z"/><path class="c" d="M317.7149,139.72v-3.3467h-.96v-1.1035h.96v-1.583h1.2588v1.583H320.15v1.1035h-1.1758v3.0342c0,.3955.1924.6836.5527.6836a.8082.8082,0,0,0,.5625-.2041l.3008.9482a1.6625,1.6625,0,0,1-1.1875.3711A1.3355,1.3355,0,0,1,317.7149,139.72Z"/><path class="c" d="M321.29,135.2693h1.26v.8516a2.4724,2.4724,0,0,1,1.8828-.9834v1.247a1.8928,1.8928,0,0,0-.3955-.0361,2.0014,2.0014,0,0,0-1.4873.7676v3.9463h-1.26Z"/><path class="c" d="M325.0948,138.16a2.9812,2.9812,0,1,1,2.9746,3.0459A2.8992,2.8992,0,0,1,325.0948,138.16Zm4.6533,0a1.6905,1.6905,0,1,0-1.6787,1.9307A1.7385,1.7385,0,0,0,329.7481,138.16Z"/><path class="c" d="M336.4083,140.27a2.3468,2.3468,0,0,1-1.8594.9355c-1.4873,0-2.5791-1.1269-2.5791-3.0341,0-1.8711,1.08-3.0459,2.5791-3.0459a2.3253,2.3253,0,0,1,1.8594.9472v-3.0107h1.2588v8h-1.2588Zm0-3.25a1.9033,1.9033,0,0,0-1.4991-.7793,1.9513,1.9513,0,0,0,0,3.85,1.8932,1.8932,0,0,0,1.4991-.7676Z"/><path class="c" d="M343.212,140.2947a2.7749,2.7749,0,0,1-2.0508.9111,1.6441,1.6441,0,0,1-1.8594-1.8349v-4.1016h1.26v3.6465c0,.8994.456,1.1748,1.164,1.1748a1.923,1.923,0,0,0,1.4864-.7559v-4.0654h1.26v5.793h-1.26Z"/><path class="c" d="M348.7452,135.1258a2.5983,2.5983,0,0,1,2.2187,1.0312l-.8281.7676a1.5457,1.5457,0,0,0-1.3311-.6836,1.9334,1.9334,0,0,0,0,3.85,1.5739,1.5739,0,0,0,1.3311-.6836l.8281.7676a2.5985,2.5985,0,0,1-2.2187,1.0312,3.04,3.04,0,0,1,0-6.08Z"/><path class="c" d="M352.3214,139.72v-3.3467h-.959v-1.1035h.959v-1.583h1.26v1.583h1.1758v1.1035h-1.1758v3.0342c0,.3955.1914.6836.5518.6836a.8114.8114,0,0,0,.5635-.2041l.3.9482a1.66,1.66,0,0,1-1.1866.3711A1.3357,1.3357,0,0,1,352.3214,139.72Z"/><path class="c" d="M355.7422,133.53a.7859.7859,0,0,1,.7793-.7792.78.78,0,1,1,0,1.56A.7868.7868,0,0,1,355.7422,133.53Zm.1553,1.7393h1.26v5.793h-1.26Z"/><path class="c" d="M358.43,138.16a2.9812,2.9812,0,1,1,2.9747,3.0459A2.9,2.9,0,0,1,358.43,138.16Zm4.6534,0a1.69,1.69,0,1,0-1.6787,1.9307A1.7385,1.7385,0,0,0,363.0831,138.16Z"/><path class="c" d="M369.5753,137.44c0-.8994-.4551-1.1992-1.1631-1.1992a1.9084,1.9084,0,0,0-1.4873.7793v4.042h-1.26v-5.793h1.26v.792a2.7388,2.7388,0,0,1,2.039-.9355,1.67,1.67,0,0,1,1.8711,1.8584v4.0781h-1.26Z"/><path class="c" d="M439.5362,139.9588c3.1055-2.3506,4.3174-3.3936,4.3174-4.545a1.2873,1.2873,0,0,0-1.4512-1.2236,2.78,2.78,0,0,0-2.1592.959l-.8154-.9229a3.8343,3.8343,0,0,1,2.95-1.2832c1.5469,0,2.9023.875,2.9023,2.4707,0,1.4746-1.3554,2.794-3.5019,4.4131h3.5508v1.2354h-5.793Z"/><path class="c" d="M447.5391,139.5154a.8394.8394,0,1,1-.84.8389A.849.849,0,0,1,447.5391,139.5154Z"/><path class="c" d="M458.0245,139.5271h-3.79l-.5869,1.5352h-1.5351l3.1416-8h1.7509l3.1426,8h-1.5351Zm-3.3946-1.2353h2.9981L456.13,134.25Z"/><path class="c" d="M461.0635,139.3953a2.9893,2.9893,0,0,0,1.9668.8154c.7559,0,1.1387-.2754,1.1387-.708,0-.5029-.6113-.6836-1.3184-.8389-.996-.2158-2.1835-.48-2.1835-1.7754,0-.9472.8164-1.7626,2.2793-1.7626a3.3129,3.3129,0,0,1,2.2548.8154l-.5283.8877a2.3326,2.3326,0,0,0-1.7148-.6963c-.6592,0-1.0791.24-1.0791.6484,0,.4434.5752.6,1.2588.7549,1.0078.2158,2.2431.5039,2.2431,1.8711,0,1.0195-.8515,1.7988-2.4111,1.7988a3.5232,3.5232,0,0,1-2.4824-.8994Z"/><path class="c" d="M466.7276,139.3953a2.9869,2.9869,0,0,0,1.9668.8154c.7549,0,1.1387-.2754,1.1387-.708,0-.5029-.6114-.6836-1.3194-.8389-.9951-.2158-2.1826-.48-2.1826-1.7754,0-.9472.8154-1.7626,2.2793-1.7626a3.31,3.31,0,0,1,2.2539.8154l-.5273.8877a2.3345,2.3345,0,0,0-1.7149-.6963c-.66,0-1.08.24-1.08.6484,0,.4434.5761.6,1.26.7549,1.0078.2158,2.2422.5039,2.2422,1.8711,0,1.0195-.8516,1.7988-2.41,1.7988a3.5217,3.5217,0,0,1-2.4825-.8994Z"/><path class="c" d="M472.1631,133.53a.7793.7793,0,1,1,.7793.78A.7852.7852,0,0,1,472.1631,133.53Zm.1553,1.7393h1.2588v5.793h-1.2588Z"/><path class="c" d="M475.7256,141.6375a2.2485,2.2485,0,0,0,1.836.7441,1.523,1.523,0,0,0,1.7148-1.5713v-.6953a2.3518,2.3518,0,0,1-1.8593.959c-1.4747,0-2.5665-1.0674-2.5665-2.9736,0-1.8711,1.08-2.9746,2.5665-2.9746a2.3073,2.3073,0,0,1,1.8593.9472v-.8037h1.26v5.4932c0,2.0869-1.5479,2.65-2.9746,2.65a3.27,3.27,0,0,1-2.4229-.8633Zm3.5508-4.6172a1.8789,1.8789,0,0,0-1.4873-.7793,1.8749,1.8749,0,0,0,0,3.7178,1.8792,1.8792,0,0,0,1.4873-.7793Z"/><path class="c" d="M486.0811,137.44c0-.8994-.457-1.1992-1.164-1.1992a1.9086,1.9086,0,0,0-1.4874.7793v4.042H482.171v-5.793H483.43v.792a2.7408,2.7408,0,0,1,2.0391-.9355,1.67,1.67,0,0,1,1.8711,1.8584v4.0781h-1.2588Z"/><path class="c" d="M491.6983,138.16a2.9812,2.9812,0,1,1,2.9746,3.0459A2.9,2.9,0,0,1,491.6983,138.16Zm4.6543,0a1.6905,1.6905,0,1,0-1.68,1.9307A1.7392,1.7392,0,0,0,496.3526,138.16Z"/><path class="c" d="M502.8448,137.44c0-.8994-.457-1.1992-1.1641-1.1992a1.9085,1.9085,0,0,0-1.4873.7793v4.042h-1.2588v-5.793h1.2588v.792a2.7408,2.7408,0,0,1,2.0391-.9355,1.67,1.67,0,0,1,1.8711,1.8584v4.0781h-1.2588Z"/><path class="c" d="M505.7374,133.0623h1.26v8h-1.26Z"/><path class="c" d="M508.4737,133.53a.786.786,0,0,1,.78-.7792.78.78,0,0,1,0,1.56A.7869.7869,0,0,1,508.4737,133.53Zm.1562,1.7393h1.26v5.793h-1.26Z"/><path class="c" d="M515.4327,137.44c0-.8994-.4571-1.1992-1.1641-1.1992a1.9085,1.9085,0,0,0-1.4873.7793v4.042h-1.2588v-5.793h1.2588v.792a2.7406,2.7406,0,0,1,2.0391-.9355,1.67,1.67,0,0,1,1.8711,1.8584v4.0781h-1.2588Z"/><path class="c" d="M520.9044,135.1258a2.87,2.87,0,0,1,2.8545,3.1542v.3h-4.4737a1.7552,1.7552,0,0,0,1.8467,1.5947,2.4487,2.4487,0,0,0,1.6436-.6358l.5751.8282a3.3733,3.3733,0,0,1-2.35.8388,3.0409,3.0409,0,0,1-.0966-6.08Zm-1.6309,2.5664h3.2627a1.55,1.55,0,0,0-1.6318-1.5352A1.5975,1.5975,0,0,0,519.2735,137.6922Z"/><path class="c" d="M528.3448,139.72v-3.3467h-.959v-1.1035h.959v-1.583h1.26v1.583H530.78v1.1035h-1.1757v3.0342c0,.3955.1914.6836.5517.6836a.811.811,0,0,0,.5635-.2041l.3.9482a1.66,1.66,0,0,1-1.1865.3711A1.3358,1.3358,0,0,1,528.3448,139.72Z"/><path class="c" d="M534.5,135.1258a2.87,2.87,0,0,1,2.8545,3.1542v.3h-4.4737a1.7552,1.7552,0,0,0,1.8467,1.5947,2.4487,2.4487,0,0,0,1.6436-.6358l.5752.8282a3.3738,3.3738,0,0,1-2.35.8388,3.0409,3.0409,0,0,1-.0966-6.08Zm-1.6309,2.5664h3.2627A1.55,1.55,0,0,0,534.5,136.157,1.5975,1.5975,0,0,0,532.8692,137.6922Z"/><path class="c" d="M538.6768,139.3953a2.9893,2.9893,0,0,0,1.9668.8154c.7559,0,1.14-.2754,1.14-.708,0-.5029-.6114-.6836-1.3194-.8389-.9951-.2158-2.1826-.48-2.1826-1.7754,0-.9472.8154-1.7626,2.2783-1.7626a3.3137,3.3137,0,0,1,2.2559.8154l-.5283.8877a2.3328,2.3328,0,0,0-1.7149-.6963c-.6592,0-1.0791.24-1.0791.6484,0,.4434.5752.6,1.2588.7549,1.0069.2158,2.2432.5039,2.2432,1.8711,0,1.0195-.8516,1.7988-2.4112,1.7988a3.5215,3.5215,0,0,1-2.4824-.8994Z"/><path class="c" d="M544.5206,139.72v-3.3467h-.959v-1.1035h.959v-1.583h1.26v1.583h1.1758v1.1035H545.78v3.0342c0,.3955.1914.6836.5518.6836a.811.811,0,0,0,.5635-.2041l.3.9482a1.66,1.66,0,0,1-1.1865.3711A1.3358,1.3358,0,0,1,544.5206,139.72Z"/><path class="c" d="M604.2823,129.7674a2.9862,2.9862,0,0,0,2.2187.9716c1.0557,0,1.667-.48,1.667-1.2236,0-.791-.6357-1.127-1.7744-1.127-.3359,0-.8047,0-.9238.0118v-1.2588c.1435.0117.6113.0117.9238.0117.9356,0,1.6426-.3242,1.6426-1.0557,0-.7431-.72-1.1269-1.6191-1.1269a2.8091,2.8091,0,0,0-2.0625.8877l-.72-.876a3.7024,3.7024,0,0,1,2.9141-1.2588c1.7275,0,2.8906.8154,2.8906,2.1582a1.9538,1.9538,0,0,1-1.7392,1.835A2.0107,2.0107,0,0,1,609.56,129.66c0,1.3555-1.164,2.3262-3.0107,2.3262a3.7083,3.7083,0,0,1-3.0225-1.2949Z"/><path class="c" d="M611.59,130.2957a.8394.8394,0,1,1-.84.8388A.849.849,0,0,1,611.59,130.2957Z"/><path class="c" d="M617.2657,129.6355a3.4493,3.4493,0,0,0,2.53,1.1035c1.1523,0,1.6074-.5634,1.6074-1.0908,0-.72-.8516-.9355-1.8223-1.1875-1.3076-.3242-2.8428-.708-2.8428-2.3994,0-1.3193,1.1631-2.3379,2.9141-2.3379a4.1647,4.1647,0,0,1,2.999,1.1152l-.8047,1.043a3.2521,3.2521,0,0,0-2.3144-.9111c-.8272,0-1.3555.3955-1.3555.9951,0,.624.8164.8281,1.7637,1.0674,1.3193.3359,2.8906.7441,2.8906,2.4824,0,1.332-.9355,2.4707-3.0947,2.4707a4.2814,4.2814,0,0,1-3.25-1.27Z"/><path class="c" d="M624.1661,130.5v-3.3467h-.96V126.05h.96v-1.583h1.2588v1.583h1.1757v1.1035h-1.1757v3.0342c0,.3955.1923.6836.5527.6836a.8082.8082,0,0,0,.5625-.2041l.3008.9482a1.663,1.663,0,0,1-1.1875.3711A1.3355,1.3355,0,0,1,624.1661,130.5Z"/><path class="c" d="M627.7413,126.05h1.26v.8515a2.473,2.473,0,0,1,1.8829-.9834v1.2471a1.8938,1.8938,0,0,0-.3956-.0361,2.0013,2.0013,0,0,0-1.4873.7676v3.9462h-1.26Z"/><path class="c" d="M635.8155,131.075a2.7771,2.7771,0,0,1-2.0508.9111,1.6438,1.6438,0,0,1-1.8594-1.835V126.05h1.26v3.6465c0,.8994.4551,1.1748,1.1631,1.1748a1.9249,1.9249,0,0,0,1.4873-.7559V126.05h1.26v5.7929h-1.26Z"/><path class="c" d="M641.3487,125.906a2.5983,2.5983,0,0,1,2.2187,1.0313l-.8281.7676a1.5457,1.5457,0,0,0-1.331-.6836,1.9334,1.9334,0,0,0,0,3.85,1.5738,1.5738,0,0,0,1.331-.6836l.8281.7676a2.5985,2.5985,0,0,1-2.2187,1.0312,3.04,3.04,0,0,1,0-6.08Z"/><path class="c" d="M644.9249,130.5v-3.3467h-.959V126.05h.959v-1.583h1.26v1.583H647.36v1.1035h-1.1758v3.0342c0,.3955.1914.6836.5518.6836a.8112.8112,0,0,0,.5635-.2041l.3.9482a1.66,1.66,0,0,1-1.1866.3711A1.3357,1.3357,0,0,1,644.9249,130.5Z"/><path class="c" d="M652.4112,131.075a2.7771,2.7771,0,0,1-2.0508.9111,1.6438,1.6438,0,0,1-1.8594-1.835V126.05h1.26v3.6465c0,.8994.4551,1.1748,1.1631,1.1748a1.9249,1.9249,0,0,0,1.4873-.7559V126.05h1.26v5.7929h-1.26Z"/><path class="c" d="M655.3047,126.05h1.2588v.8515a2.4766,2.4766,0,0,1,1.8838-.9834v1.2471a1.8989,1.8989,0,0,0-.3955-.0361,2.0034,2.0034,0,0,0-1.4883.7676v3.9462h-1.2588Z"/><path class="c" d="M662.0479,125.906a2.87,2.87,0,0,1,2.8535,3.1543v.3h-4.4726a1.7546,1.7546,0,0,0,1.8467,1.5948,2.4522,2.4522,0,0,0,1.6435-.6358l.5752.8281a3.3741,3.3741,0,0,1-2.3506.8389,3.0409,3.0409,0,0,1-.0957-6.08Zm-1.6308,2.5664h3.2617a1.5493,1.5493,0,0,0-1.6309-1.5351A1.5966,1.5966,0,0,0,660.4171,128.4724Z"/><path class="c" d="M670.2305,131.0506a2.3469,2.3469,0,0,1-1.8593.9355c-1.4873,0-2.5791-1.1269-2.5791-3.0342,0-1.8711,1.08-3.0459,2.5791-3.0459a2.3251,2.3251,0,0,1,1.8593.9473v-3.0108h1.2588v8h-1.2588Zm0-3.25a1.9032,1.9032,0,0,0-1.499-.7793,1.9513,1.9513,0,0,0,0,3.85,1.8934,1.8934,0,0,0,1.499-.7676Z"/><path class="c" d="M675.8487,128.94a2.9812,2.9812,0,1,1,2.9746,3.0459A2.9,2.9,0,0,1,675.8487,128.94Zm4.6543,0a1.6905,1.6905,0,1,0-1.68,1.9307A1.7392,1.7392,0,0,0,680.503,128.94Z"/><path class="c" d="M686.9952,128.22c0-.8994-.4571-1.1992-1.1641-1.1992a1.9082,1.9082,0,0,0-1.4873.7793v4.0419H683.085V126.05h1.2588v.792a2.7407,2.7407,0,0,1,2.0391-.9356,1.67,1.67,0,0,1,1.8711,1.8584v4.0781h-1.2588Z"/><path class="c" d="M689.4327,128.4h2.8789v1.08h-2.8789Z"/><path class="c" d="M693.5606,130.1756a2.9869,2.9869,0,0,0,1.9668.8154c.7549,0,1.14-.2754,1.14-.708,0-.503-.6114-.6836-1.32-.8389-.9941-.2158-2.1816-.48-2.1816-1.7754,0-.9472.8145-1.7627,2.2783-1.7627a3.3111,3.3111,0,0,1,2.2549.8155l-.5273.8877a2.3352,2.3352,0,0,0-1.7159-.6963c-.6591,0-1.0791.24-1.0791.6484,0,.4434.5762.6,1.26.7549,1.0068.2158,2.2422.5039,2.2422,1.8711,0,1.0195-.8516,1.7988-2.41,1.7988a3.52,3.52,0,0,1-2.4824-.8994Z"/><path class="c" d="M698.9962,124.31a.7859.7859,0,0,1,.7793-.7793.78.78,0,1,1,0,1.56A.7867.7867,0,0,1,698.9962,124.31Zm.1552,1.7393h1.26v5.7929h-1.26Z"/><path class="c" d="M702.296,130.5v-3.3467h-.959V126.05h.959v-1.583h1.26v1.583h1.1748v1.1035h-1.1748v3.0342c0,.3955.1914.6836.5508.6836a.812.812,0,0,0,.5645-.2041l.3.9482a1.6632,1.6632,0,0,1-1.1875.3711A1.3355,1.3355,0,0,1,702.296,130.5Z"/><path class="c" d="M708.45,125.906a2.87,2.87,0,0,1,2.8544,3.1543v.3h-4.4736a1.755,1.755,0,0,0,1.8477,1.5948,2.4518,2.4518,0,0,0,1.6426-.6358l.5761.8281a3.3779,3.3779,0,0,1-2.3515.8389,3.0409,3.0409,0,0,1-.0957-6.08Zm-1.6309,2.5664h3.2617a1.5486,1.5486,0,0,0-1.6308-1.5351A1.5974,1.5974,0,0,0,706.8194,128.4724Z"/><path class="c" d="M603.8985,138.7107a.786.786,0,0,1,.7793-.7793.78.78,0,1,1,0,1.56A.7868.7868,0,0,1,603.8985,138.7107Zm.1553,1.7393h1.26v5.7929h-1.26Z"/><path class="c" d="M610.8565,142.6209c0-.8994-.456-1.1992-1.1641-1.1992a1.9064,1.9064,0,0,0-1.4863.7792v4.042h-1.26V140.45h1.26v.792a2.7373,2.7373,0,0,1,2.0391-.9356,1.67,1.67,0,0,1,1.8711,1.8584v4.0781h-1.26Z"/><path class="c" d="M614.002,144.9v-3.3467h-.96V140.45h.96v-1.583h1.2588v1.583h1.1758v1.1035h-1.1758v3.0342c0,.3955.1924.6836.5527.6836a.8082.8082,0,0,0,.5625-.2041l.3008.9482a1.663,1.663,0,0,1-1.1875.3711A1.3355,1.3355,0,0,1,614.002,144.9Z"/><path class="c" d="M620.1563,140.3064a2.87,2.87,0,0,1,2.8545,3.1543v.3h-4.4736a1.7552,1.7552,0,0,0,1.8467,1.5947,2.4483,2.4483,0,0,0,1.6435-.6357l.5752.8281a3.3733,3.3733,0,0,1-2.35.8389,3.0409,3.0409,0,0,1-.0967-6.08Zm-1.6308,2.5664h3.2626a1.55,1.55,0,0,0-1.6318-1.5351A1.5972,1.5972,0,0,0,618.5255,142.8728Z"/><path class="c" d="M624.2618,140.45h1.2588v.8515a2.4763,2.4763,0,0,1,1.8838-.9834v1.2471a1.9,1.9,0,0,0-.3955-.0361,2.003,2.003,0,0,0-1.4883.7676v3.9462h-1.2588Z"/><path class="c" d="M627.587,140.45H628.93l1.69,4.3418,1.6914-4.3418h1.3555l-2.3633,5.7929h-1.3545Z"/><path class="c" d="M634.3057,138.7107a.7793.7793,0,1,1,.7793.78A.7853.7853,0,0,1,634.3057,138.7107Zm.1563,1.7393h1.2588v5.7929H634.462Z"/><path class="c" d="M639.9327,140.3064a2.87,2.87,0,0,1,2.8535,3.1543v.3h-4.4727a1.7546,1.7546,0,0,0,1.8467,1.5947,2.4521,2.4521,0,0,0,1.6436-.6357l.5752.8281a3.3741,3.3741,0,0,1-2.3506.8389,3.0409,3.0409,0,0,1-.0957-6.08Zm-1.6309,2.5664h3.2617a1.5492,1.5492,0,0,0-1.6308-1.5351A1.5967,1.5967,0,0,0,638.3018,142.8728Z"/><path class="c" d="M647.7432,141.9968,646.4,146.2429h-1.3184l-1.7988-5.7929h1.3066l1.2237,4.21,1.3789-4.21h1.1035l1.38,4.21,1.2226-4.21h1.3067l-1.7989,5.7929H649.087Z"/><path class="c" d="M300.3018,268.0164h-3.8135v-1.128l3.2862-5.0615h1.9306v4.9541h1.0674v1.2354h-1.0674v1.8105h-1.4033Zm-2.4346-1.2354h2.4346v-3.6943Z"/><path class="c" d="M304.5753,268.28a.8394.8394,0,1,1-.84.8389A.85.85,0,0,1,304.5753,268.28Z"/><path class="c" d="M312.7823,266.8406h-1.3906v2.9863h-1.4043v-8h3.5146a2.4287,2.4287,0,0,1,2.6143,2.5069,2.2423,2.2423,0,0,1-1.8946,2.3505l1.9551,3.1426h-1.6191Zm.5273-3.7783h-1.9179v2.5429H313.31a1.2748,1.2748,0,1,0,0-2.5429Z"/><path class="c" d="M319.7061,263.89a2.87,2.87,0,0,1,2.8545,3.1543v.3H318.087a1.7548,1.7548,0,0,0,1.8476,1.5947,2.4515,2.4515,0,0,0,1.6426-.6357l.5762.8281a3.3784,3.3784,0,0,1-2.3516.8389,3.0409,3.0409,0,0,1-.0957-6.08Zm-1.6308,2.5664h3.2617a1.5487,1.5487,0,0,0-1.6309-1.5351A1.5979,1.5979,0,0,0,318.0753,266.4568Z"/><path class="c" d="M324.11,265.1375h-.959V264.034h.959v-.3233a1.7874,1.7874,0,0,1,1.836-2.0029,2.0935,2.0935,0,0,1,1.0078.2275l-.2764.9239a1.0068,1.0068,0,0,0-.5039-.12c-.4912,0-.8037.3233-.8037.9717v.3233h1.1758v1.1035H325.37v4.6894h-1.26Z"/><path class="c" d="M330.086,263.89a2.87,2.87,0,0,1,2.8545,3.1543v.3h-4.4736a1.7551,1.7551,0,0,0,1.8466,1.5947,2.4484,2.4484,0,0,0,1.6436-.6357l.5752.8281a3.3733,3.3733,0,0,1-2.35.8389,3.0409,3.0409,0,0,1-.0967-6.08Zm-1.6309,2.5664h3.2627a1.55,1.55,0,0,0-1.6318-1.5351A1.5974,1.5974,0,0,0,328.4551,266.4568Z"/><path class="c" d="M334.1905,264.034h1.26v.8515a2.4727,2.4727,0,0,1,1.8828-.9834v1.2471a1.8935,1.8935,0,0,0-.3955-.0361,2.0012,2.0012,0,0,0-1.4873.7675v3.9463h-1.26Z"/><path class="c" d="M340.9337,263.89a2.87,2.87,0,0,1,2.8544,3.1543v.3h-4.4736a1.7552,1.7552,0,0,0,1.8467,1.5947,2.4483,2.4483,0,0,0,1.6435-.6357l.5752.8281a3.3731,3.3731,0,0,1-2.35.8389,3.0409,3.0409,0,0,1-.0966-6.08Zm-1.6309,2.5664h3.2627a1.55,1.55,0,0,0-1.6318-1.5351A1.5974,1.5974,0,0,0,339.3028,266.4568Z"/><path class="c" d="M348.9483,266.2049c0-.8995-.4551-1.1993-1.1631-1.1993a1.9085,1.9085,0,0,0-1.4873.7793v4.042h-1.26V264.034h1.26v.7919a2.7394,2.7394,0,0,1,2.0391-.9355,1.67,1.67,0,0,1,1.8711,1.8584v4.0781h-1.26Z"/><path class="c" d="M354.4815,263.89a2.5984,2.5984,0,0,1,2.2188,1.0313l-.8282.7675a1.5441,1.5441,0,0,0-1.33-.6836,1.9333,1.9333,0,0,0,0,3.85,1.5718,1.5718,0,0,0,1.33-.6835l.8282.7675a2.5984,2.5984,0,0,1-2.2188,1.0313,3.04,3.04,0,0,1,0-6.08Z"/><path class="c" d="M360.3858,263.89a2.87,2.87,0,0,1,2.8535,3.1543v.3h-4.4726a1.7545,1.7545,0,0,0,1.8466,1.5947,2.4521,2.4521,0,0,0,1.6436-.6357l.5752.8281a3.3741,3.3741,0,0,1-2.3506.8389,3.0409,3.0409,0,0,1-.0957-6.08Zm-1.6309,2.5664h3.2618a1.5493,1.5493,0,0,0-1.6309-1.5351A1.596,1.596,0,0,0,358.7549,266.4568Z"/><path class="c" d="M370.213,263.89a2.5956,2.5956,0,0,1,2.2187,1.0313l-.8271.7675a1.5466,1.5466,0,0,0-1.3321-.6836,1.9335,1.9335,0,0,0,0,3.85,1.5744,1.5744,0,0,0,1.3321-.6835l.8271.7675a2.5956,2.5956,0,0,1-2.2187,1.0313,3.04,3.04,0,0,1,0-6.08Z"/><path class="c" d="M377.0762,269.2029a2.4438,2.4438,0,0,1-1.8711.7676,1.9241,1.9241,0,0,1-2.0146-1.919,1.8652,1.8652,0,0,1,2.0146-1.8828,2.3913,2.3913,0,0,1,1.8711.7442v-.8643c0-.6709-.5517-1.0791-1.3545-1.0791a2.3745,2.3745,0,0,0-1.7158.7314l-.5156-.875a3.4426,3.4426,0,0,1,2.4346-.9355c1.2832,0,2.41.5391,2.41,2.0986v3.8379h-1.2588Zm0-1.57a1.6944,1.6944,0,0,0-1.38-.6006,1.0533,1.0533,0,1,0,0,2.0752,1.6966,1.6966,0,0,0,1.38-.6Z"/><path class="c" d="M379.97,261.8269h1.26v8h-1.26Z"/><path class="c" d="M382.8624,261.8269h1.26v8h-1.26Z"/><path class="c" d="M461.5294,267.7771a2.76,2.76,0,0,0,2.1591.9473,1.4743,1.4743,0,0,0,1.6426-1.4033,1.4263,1.4263,0,0,0-1.6074-1.4268,2.4047,2.4047,0,0,0-1.75.6953l-.9961-.2881v-4.4736h5.2412v1.2354h-3.8379v2.3154a2.6075,2.6075,0,0,1,1.8115-.6963,2.4814,2.4814,0,0,1,2.5547,2.5791c0,1.667-1.26,2.71-3.0468,2.71a3.6575,3.6575,0,0,1-2.9747-1.2354Z"/><path class="c" d="M468.7178,268.281a.8394.8394,0,1,1-.84.8389A.85.85,0,0,1,468.7178,268.281Z"/><path class="c" d="M477.8594,261.6961a4.138,4.138,0,1,1-4.09,4.1377A3.9688,3.9688,0,0,1,477.8594,261.6961Zm0,1.248a2.901,2.901,0,1,0,2.65,2.89A2.65,2.65,0,0,0,477.8594,262.9441Z"/><path class="c" d="M483.5733,265.1384h-.959v-1.1035h.959v-.3232a1.7872,1.7872,0,0,1,1.835-2.0029,2.0923,2.0923,0,0,1,1.0078.2275l-.2764.9238a1.0065,1.0065,0,0,0-.5039-.12c-.4912,0-.8027.3233-.8027.9717v.3232h1.1748v1.1035h-1.1748v4.69h-1.26Zm3.6943,0h-.96v-1.1035h.96v-.3232a1.7872,1.7872,0,0,1,1.835-2.0029,2.092,2.092,0,0,1,1.0078.2275l-.2764.9238a1.0065,1.0065,0,0,0-.5039-.12c-.4912,0-.8037.3233-.8037.9717v.3232h1.1758v1.1035h-1.1758v4.69h-1.2588Z"/><path class="c" d="M493.2432,263.8914a2.87,2.87,0,0,1,2.8555,3.1543v.3h-4.4746a1.7554,1.7554,0,0,0,1.8476,1.5947,2.4477,2.4477,0,0,0,1.6426-.6357l.5762.8281a3.3778,3.3778,0,0,1-2.3506.8389,3.0409,3.0409,0,0,1-.0967-6.08Zm-1.6308,2.5664h3.2627a1.55,1.55,0,0,0-1.6319-1.5352A1.5987,1.5987,0,0,0,491.6124,266.4578Z"/><path class="c" d="M497.3487,264.0349h1.26v.8516a2.4724,2.4724,0,0,1,1.8828-.9834V265.15a1.8854,1.8854,0,0,0-.3955-.0362,2.0013,2.0013,0,0,0-1.4873.7676v3.9463h-1.26Z"/><path class="c" d="M504.669,268.1609a2.9891,2.9891,0,0,0,1.9668.8154c.7559,0,1.1387-.2754,1.1387-.708,0-.5029-.6114-.6836-1.3184-.8388-.9961-.2159-2.1836-.48-2.1836-1.7754,0-.9473.8164-1.7627,2.2793-1.7627a3.3129,3.3129,0,0,1,2.2549.8154l-.5283.8877a2.3328,2.3328,0,0,0-1.7149-.6963c-.6591,0-1.0791.24-1.0791.6485,0,.4433.5752.6,1.2588.7548,1.0078.2159,2.2432.5039,2.2432,1.8711,0,1.02-.8516,1.7989-2.4111,1.7989a3.5233,3.5233,0,0,1-2.4825-.8995Z"/><path class="c" d="M510.5128,268.4851v-3.3467h-.959v-1.1035h.959v-1.583h1.26v1.583h1.1748v1.1035h-1.1748v3.0342c0,.3955.1914.6836.5508.6836a.812.812,0,0,0,.5645-.2041l.3.9483a1.6632,1.6632,0,0,1-1.1875.3711A1.3355,1.3355,0,0,1,510.5128,268.4851Z"/><path class="c" d="M517.626,269.2039a2.4438,2.4438,0,0,1-1.8711.7676,1.9233,1.9233,0,0,1-2.0136-1.919,1.8644,1.8644,0,0,1,2.0136-1.8828,2.3916,2.3916,0,0,1,1.8711.7441V266.05c0-.6709-.5507-1.0791-1.3545-1.0791a2.3762,2.3762,0,0,0-1.7158.7314l-.5156-.875a3.4466,3.4466,0,0,1,2.4355-.9355c1.2833,0,2.41.539,2.41,2.0986v3.8379h-1.26Zm0-1.57a1.6924,1.6924,0,0,0-1.3789-.6006,1.0533,1.0533,0,1,0,0,2.0752,1.6947,1.6947,0,0,0,1.3789-.6Z"/><path class="c" d="M521.0362,270.4031a2.2452,2.2452,0,0,0,1.835.7441,1.5238,1.5238,0,0,0,1.7158-1.5713v-.6953a2.3535,2.3535,0,0,1-1.8594.959c-1.4746,0-2.5664-1.0674-2.5664-2.9736,0-1.8711,1.0791-2.9746,2.5664-2.9746a2.31,2.31,0,0,1,1.8594.9472v-.8037h1.2588v5.4932c0,2.0869-1.5479,2.65-2.9746,2.65a3.271,3.271,0,0,1-2.4229-.8633Zm3.5508-4.6172a1.8826,1.8826,0,0,0-1.4883-.7793,1.8748,1.8748,0,0,0,0,3.7178,1.8826,1.8826,0,0,0,1.4883-.7793Z"/><path class="c" d="M530.06,263.8914a2.87,2.87,0,0,1,2.8535,3.1543v.3h-4.4726a1.7546,1.7546,0,0,0,1.8467,1.5947,2.4521,2.4521,0,0,0,1.6435-.6357l.5752.8281a3.3744,3.3744,0,0,1-2.3506.8389,3.0409,3.0409,0,0,1-.0957-6.08Zm-1.6308,2.5664h3.2617a1.5493,1.5493,0,0,0-1.6309-1.5352A1.5967,1.5967,0,0,0,528.4288,266.4578Z"/><path class="c" d="M609.9483,261.7088a3.2035,3.2035,0,0,1,2.3027.8867l-.66,1.0674a2.0527,2.0527,0,0,0-1.6426-.7071c-1.332,0-2.1113,1.2354-2.1113,2.6387a1.4078,1.4078,0,0,0,.0117.2275,2.7256,2.7256,0,0,1,2.1475-1.1152,2.484,2.484,0,0,1,2.6748,2.5781,2.7315,2.7315,0,0,1-2.9512,2.6866c-2.3506,0-3.2979-1.9063-3.2979-4.125C606.4219,263.531,607.6339,261.7088,609.9483,261.7088Zm-.3359,4.1972a2.1919,2.1919,0,0,0-1.751.9473,1.8262,1.8262,0,0,0,1.7861,1.8711,1.4809,1.4809,0,0,0,1.6074-1.3916C611.2549,266.3494,610.4874,265.906,609.6124,265.906Z"/><path class="c" d="M614.6055,268.281a.8394.8394,0,1,1-.84.8389A.849.849,0,0,1,614.6055,268.281Z"/><path class="c" d="M620.0176,261.8279h3.5147a2.509,2.509,0,1,1,0,5.0137H621.421v2.9863h-1.4034Zm3.3223,1.2354H621.421v2.5429H623.34a1.2748,1.2748,0,1,0,0-2.5429Z"/><path class="c" d="M627.2774,264.0349h1.2588v.8516a2.476,2.476,0,0,1,1.8838-.9834V265.15a1.8921,1.8921,0,0,0-.3955-.0362,2.0035,2.0035,0,0,0-1.4883.7676v3.9463h-1.2588Z"/><path class="c" d="M634.02,263.8914a2.87,2.87,0,0,1,2.8545,3.1543v.3h-4.4736a1.7551,1.7551,0,0,0,1.8466,1.5947,2.4484,2.4484,0,0,0,1.6436-.6357l.5752.8281a3.3737,3.3737,0,0,1-2.35.8389,3.0409,3.0409,0,0,1-.0967-6.08Zm-1.6309,2.5664h3.2627a1.55,1.55,0,0,0-1.6318-1.5352A1.5975,1.5975,0,0,0,632.3887,266.4578Z"/><path class="c" d="M638.1251,272.0349v-8h1.2588v.792a2.3118,2.3118,0,0,1,1.8593-.9355c1.5,0,2.5664,1.1269,2.5664,3.0342s-1.0664,3.0459-2.5664,3.0459a2.2755,2.2755,0,0,1-1.8593-.9473v3.0107Zm2.747-7.0283a1.8823,1.8823,0,0,0-1.4882.7793v2.291a1.9158,1.9158,0,0,0,1.4882.7793,1.9513,1.9513,0,0,0,0-3.85Z"/><path class="c" d="M647.8448,265.8338a4.0212,4.0212,0,0,1,4.1377-4.1377,3.6479,3.6479,0,0,1,3.2744,1.7988l-1.1992.6123a2.4017,2.4017,0,0,0-2.0752-1.1631,2.897,2.897,0,0,0,0,5.78,2.3769,2.3769,0,0,0,2.0752-1.1631l1.1992.6113a3.66,3.66,0,0,1-3.2744,1.7989A4.0207,4.0207,0,0,1,647.8448,265.8338Z"/><path class="c" d="M659.8907,269.2039a2.444,2.444,0,0,1-1.8711.7676,1.9241,1.9241,0,0,1-2.0147-1.919A1.8653,1.8653,0,0,1,658.02,266.17a2.393,2.393,0,0,1,1.8711.7441V266.05c0-.6709-.5518-1.0791-1.3545-1.0791a2.3745,2.3745,0,0,0-1.7158.7314l-.5157-.875a3.4444,3.4444,0,0,1,2.4346-.9355c1.2832,0,2.41.539,2.41,2.0986v3.8379h-1.2588Zm0-1.57a1.6939,1.6939,0,0,0-1.3789-.6006,1.0534,1.0534,0,1,0,0,2.0752,1.6962,1.6962,0,0,0,1.3789-.6Z"/><path class="c" d="M666.6944,266.2058c0-.8994-.4551-1.1992-1.1631-1.1992a1.9085,1.9085,0,0,0-1.4873.7793v4.042h-1.26v-5.793h1.26v.792a2.7394,2.7394,0,0,1,2.0391-.9355,1.67,1.67,0,0,1,1.8711,1.8584v4.0781h-1.26Z"/><path class="c" d="M673.6661,269.0359a2.3437,2.3437,0,0,1-1.8584.9356c-1.4873,0-2.5791-1.127-2.5791-3.0342,0-1.8711,1.0791-3.0459,2.5791-3.0459a2.3249,2.3249,0,0,1,1.8584.9472v-3.0107h1.26v8h-1.26Zm0-3.25a1.9035,1.9035,0,0,0-1.499-.7793,1.9513,1.9513,0,0,0,0,3.85,1.8932,1.8932,0,0,0,1.499-.7676Z"/><path class="c" d="M676.4044,262.2957a.7858.7858,0,0,1,.7793-.7793.78.78,0,1,1,0,1.56A.7867.7867,0,0,1,676.4044,262.2957Zm.1552,1.7392h1.26v5.793h-1.26Z"/><path class="c" d="M683.53,269.0359a2.3438,2.3438,0,0,1-1.8593.9356c-1.4864,0-2.5782-1.127-2.5782-3.0342,0-1.8711,1.0791-3.0459,2.5782-3.0459a2.325,2.325,0,0,1,1.8593.9472v-3.0107h1.26v8h-1.26Zm0-3.25a1.9055,1.9055,0,0,0-1.5-.7793,1.9513,1.9513,0,0,0,0,3.85,1.8951,1.8951,0,0,0,1.5-.7676Z"/><path class="c" d="M689.962,269.2039a2.444,2.444,0,0,1-1.8711.7676,1.9233,1.9233,0,0,1-2.0137-1.919,1.8645,1.8645,0,0,1,2.0137-1.8828,2.3917,2.3917,0,0,1,1.8711.7441V266.05c0-.6709-.5508-1.0791-1.3545-1.0791a2.376,2.376,0,0,0-1.7158.7314l-.5157-.875a3.4468,3.4468,0,0,1,2.4356-.9355c1.2832,0,2.41.539,2.41,2.0986v3.8379h-1.26Zm0-1.57a1.6926,1.6926,0,0,0-1.3789-.6006,1.0533,1.0533,0,1,0,0,2.0752,1.6948,1.6948,0,0,0,1.3789-.6Z"/><path class="c" d="M693.1085,268.4851v-3.3467h-.96v-1.1035h.96v-1.583h1.2587v1.583h1.1749v1.1035h-1.1749v3.0342c0,.3955.1924.6836.5518.6836a.8093.8093,0,0,0,.5635-.2041l.3.9483a1.6614,1.6614,0,0,1-1.1875.3711A1.3352,1.3352,0,0,1,693.1085,268.4851Z"/><path class="c" d="M699.2628,263.8914a2.87,2.87,0,0,1,2.8544,3.1543v.3h-4.4736a1.7549,1.7549,0,0,0,1.8477,1.5947,2.4517,2.4517,0,0,0,1.6426-.6357l.5761.8281a3.3784,3.3784,0,0,1-2.3515.8389,3.0409,3.0409,0,0,1-.0957-6.08Zm-1.6309,2.5664h3.2617a1.5487,1.5487,0,0,0-1.6308-1.5352A1.5975,1.5975,0,0,0,697.6319,266.4578Z"/><path class="d" d="M662.8118,198.0705h20.8023a2.151,2.151,0,0,1,2.151,2.151v45.2592a2.151,2.151,0,0,1-2.151,2.151H646.6907a2.151,2.151,0,0,1-2.151-2.151V209.049L655.2991,198.29Z"/><path class="e" d="M660.7543,196.3559h20.8023a2.151,2.151,0,0,1,2.151,2.151v45.2593a2.1509,2.1509,0,0,1-2.151,2.1509H644.6332a2.1509,2.1509,0,0,1-2.151-2.1509v-27.22l.151-20.16Z"/><path class="f" d="M647.3761,245.9157h-2.7434a2.1492,2.1492,0,0,1-2.15-2.15V216.545l.151-20.16,18.12-.0275h2.7434l-18.12.0275-.1509,20.16v27.2206A2.1491,2.1491,0,0,0,647.3761,245.9157Z"/><path class="f" d="M683.7081,198.5075v45.2581a2.1491,2.1491,0,0,1-2.15,2.15h-3.0862a2.1491,2.1491,0,0,0,2.15-2.15V198.5075a2.1492,2.1492,0,0,0-2.15-2.15h3.0862A2.1492,2.1492,0,0,1,683.7081,198.5075Z"/><line class="g" x1="657.7341" y1="230.7408" x2="672.7595" y2="230.7408"/><circle class="h" cx="654.4814" cy="230.804" r="0.9977"/><path class="i" d="M677.8371,212.6921a12.322,12.322,0,0,1-12.6847,12.5652c-7.56-.1416-12.76-5.5388-12.76-12.5652a12.7225,12.7225,0,0,1,25.445,0Z"/><circle class="h" cx="680.6497" cy="199.1422" r="0.6293"/><circle class="h" cx="654.538" cy="235.9084" r="0.9977"/><line class="g" x1="657.7341" y1="235.9238" x2="672.7595" y2="235.9238"/><path class="j" d="M675.78,212.6921a12.322,12.322,0,0,1-12.6847,12.5652c-7.56-.1416-12.76-5.5388-12.76-12.5652a12.7225,12.7225,0,1,1,25.445,0Z"/><path class="k" d="M653.9777,221.69s3.0013-6.399,9.9666-5.6062c.1435.0163,4.8134.2831,7.7864,6.0026a14.5754,14.5754,0,0,1-9.2021,3.1712C662.4153,225.2573,656.8658,224.7759,653.9777,221.69Z"/><circle class="e" cx="662.9974" cy="211.2103" r="4.5869"/><circle class="g" cx="662.9974" cy="211.2103" r="4.5869"/><circle class="h" cx="654.538" cy="241.0128" r="0.9977"/><line class="g" x1="657.7341" y1="241.0283" x2="665.9011" y2="241.0283"/><circle class="i" cx="649.103" cy="201.7235" r="9.0086"/><circle class="l" cx="647.8572" cy="200.5909" r="9.0086"/><path class="i" d="M656.8646,200.5925c0,4.9723-3.6733,9.0084-8.2055,9.0084a7.3572,7.3572,0,0,1-1.5617-.1646,9.21,9.21,0,0,0,0-17.691,7.3507,7.3507,0,0,1,1.5617-.1646C653.1913,191.5807,656.8646,195.6168,656.8646,200.5925Z"/><path class="m" d="M649.2278,209.4981a9.01,9.01,0,1,1,0-17.8146,9.013,9.013,0,0,0,0,17.8146Z"/><polyline class="g" points="644.045 200.431 646.686 202.987 651.03 198.642"/><circle class="h" cx="651.6693" cy="205.7128" r="0.71"/><circle class="g" cx="647.8572" cy="200.5909" r="9.0086"/><circle class="h" cx="670.3433" cy="205.258" r="0.6293"/><circle class="h" cx="645.1845" cy="236.3497" r="0.6293"/><line class="g" x1="645.1406" y1="222.4542" x2="645.1406" y2="234.1196"/><path class="n" d="M669.4781,223.7424s-1.7869-6.0733-6.5342-7.2625c0,0,5.5874-.8636,8.5744,5.8468Z"/><path class="o" d="M656.342,223.4452s1.3543-5.8611,6.3942-7.05c0,0-5.3608-1.2458-8.532,5.4647Z"/><circle class="k" cx="662.9974" cy="211.2103" r="4.5869"/><path class="o" d="M664.0256,215.6813a4.5866,4.5866,0,1,1,0-8.94,4.5873,4.5873,0,0,0,0,8.94Z"/><circle class="g" cx="662.9974" cy="211.2103" r="4.5869"/><path class="n" d="M667.5851,211.21c0,2.5342-1.7876,4.5882-3.9931,4.5882a3.5369,3.5369,0,0,1-1.0445-.1577,4.8,4.8,0,0,0,0-8.8574,3.5338,3.5338,0,0,1,1.0445-.1579C665.7975,206.6249,667.5851,208.6755,667.5851,211.21Z"/><circle class="h" cx="645.1153" cy="194.0672" r="0.6293"/><path class="g" d="M653.9777,221.69s3.0013-6.399,9.9666-5.6062c.1435.0163,4.8134.2831,7.7864,6.0026a12.9234,12.9234,0,0,1-9.23,3.1428C662.3871,225.2263,656.8658,224.7759,653.9777,221.69Z"/><g class="p"><path class="q" d="M381.7253,212.2691v20.68a3.593,3.593,0,0,1-3.5936,3.5936H348.818l-12.6265,6.4112v-6.4112h-2.486a3.593,3.593,0,0,1-3.5936-3.5936v-20.68a3.5881,3.5881,0,0,1,3.5936-3.5935h44.4262A3.5881,3.5881,0,0,1,381.7253,212.2691Z"/></g><path class="r" d="M379.5982,210.7883v20.68a3.593,3.593,0,0,1-3.5936,3.5936H346.691l-12.6265,6.4112v-6.4112h-2.4861a3.593,3.593,0,0,1-3.5936-3.5936v-20.68a3.5882,3.5882,0,0,1,3.5936-3.5936h44.4262A3.5882,3.5882,0,0,1,379.5982,210.7883Z"/><g class="s"><path class="c" d="M332.749,235.0632h-1.9461c-1.5621,0-2.8176-1.6114-2.8176-3.5949V210.789c0-1.9883,1.2555-3.5949,2.8176-3.5949h3.6928c-1.562,0-2.8176,1.6066-2.8176,3.5949v20.6793C331.4618,234.4522,332.749,235.0632,332.749,235.0632Z"/></g><path class="g" d="M379.5982,210.7883v20.68a3.593,3.593,0,0,1-3.5936,3.5936H346.691l-12.6265,6.4112v-6.4112h-2.4861a3.593,3.593,0,0,1-3.5936-3.5936v-20.68a3.5882,3.5882,0,0,1,3.5936-3.5936h44.4262A3.5882,3.5882,0,0,1,379.5982,210.7883Z"/><g class="t"><path class="h" d="M376.3371,207.1947H331.5784a3.5859,3.5859,0,0,0-3.5636,3.15,3.9688,3.9688,0,0,1,.4887-.0336H372.93a3.4367,3.4367,0,0,1,3.5936,3.2669v18.8a3.19,3.19,0,0,1-1.5471,2.684h1.0284a3.593,3.593,0,0,0,3.5936-3.5936V210.4559A3.2611,3.2611,0,0,0,376.3371,207.1947Z"/></g><g class="s"><line class="g" x1="368.9898" y1="216.3102" x2="337.8207" y2="216.3102"/><line class="g" x1="349.8508" y1="221.9764" x2="337.8207" y2="221.9764"/><line class="g" x1="368.9898" y1="221.9764" x2="354.4984" y2="221.9764"/><line class="g" x1="368.9898" y1="227.6426" x2="337.8207" y2="227.6426"/></g><path class="u" d="M341.6,196.6023H309.731a2.5766,2.5766,0,0,0-2.5766,2.5766V213.696a2.7412,2.7412,0,0,1,2.5078-1.403h20.5251c2.9294,0,3.6507,3.4186,2.1735,5.1126l7.4524,3.787v-4.6015H341.6a2.5767,2.5767,0,0,0,2.5766-2.5767V199.1789A2.5766,2.5766,0,0,0,341.6,196.6023Z"/><path class="e" d="M308.472,196.2585h31.8685a2.5766,2.5766,0,0,1,2.5766,2.5767v14.8355a2.5766,2.5766,0,0,1-2.5766,2.5766h-1.7863v4.6015l-9.0553-4.6015H308.472a2.5766,2.5766,0,0,1-2.5766-2.5766V198.8352A2.5766,2.5766,0,0,1,308.472,196.2585Z"/><line class="v" x1="338.8449" y1="201.558" x2="309.9676" y2="201.558"/><line class="v" x1="321.1132" y1="206.4028" x2="309.9676" y2="206.4028"/><line class="v" x1="338.8449" y1="206.4028" x2="325.4191" y2="206.4028"/><line class="v" x1="338.8449" y1="211.2476" x2="309.9676" y2="211.2476"/><path class="i" d="M342.9163,198.8357v14.8369c0,1.4229-.8232,2.5725-1.8381,2.5725H338.726c1.0148,0,1.8381-1.15,1.8381-2.5725V198.8357c0-1.4229-.8233-2.5772-1.8381-2.5772h2.3522C342.0931,196.2585,342.9163,197.4128,342.9163,198.8357Z"/><circle class="h" cx="372.0501" cy="210.6221" r="0.6984"/><circle class="h" cx="331.9557" cy="231.3853" r="0.6984"/><g class="p"><polygon class="q" points="669 52.641 662.801 58.382 675.439 58.4 669 52.641"/><path class="q" d="M676.6177,60.3479V57.3565H661.1153v2.9914h-.9779V78.8l-2.1731.215V77.6137H645.8625v1.4012h-2.9314V80.13H631.3162v2.3554h.8931v27.7427h10.7218v.9386h17.8073a.1574.1574,0,0,0,.1573-.1574v-.4913h15.5589s1.553.1252,1.3833-1.25v-48.92Z"/></g><rect class="w" x="659.7828" y="57.1447" width="15.7245" height="1.9364" transform="translate(1335.2901 116.2259) rotate(-180)"/><rect class="i" x="659.7828" y="57.1447" width="15.7245" height="1.9364" transform="translate(1335.2901 116.2259) rotate(-180)"/><polygon class="x" points="674.107 57.081 667.667 51.309 661.468 57.062 674.107 57.081"/><polygon class="y" points="674.107 57.081 667.667 51.309 661.468 57.062 674.107 57.081"/><polygon class="o" points="667.699 51.698 664.325 56.759 662.002 56.784 667.699 51.698"/><rect class="o" x="660.033" y="57.3459" width="3.3719" height="1.5402"/><polygon class="g" points="674.107 57.081 667.667 51.309 661.468 57.062 674.107 57.081"/><rect class="z" x="659.7828" y="57.1447" width="15.7245" height="1.9364" transform="translate(1335.2901 116.2259) rotate(-180)"/><rect class="x" x="658.8049" y="59.0323" width="17.7006" height="50.28"/><rect class="i" x="674.0118" y="59.3949" width="2.1316" height="49.9174"/><line class="e" x1="672.0946" y1="64.254" x2="672.0946" y2="108.9945"/><line class="e" x1="667.4311" y1="64.254" x2="667.4311" y2="108.9945"/><line class="e" x1="662.9896" y1="64.254" x2="662.9896" y2="108.9945"/><rect class="aa" x="659.0296" y="59.2284" width="1.5402" height="18.6297"/><rect class="g" x="658.8049" y="59.0323" width="17.7006" height="50.28"/><rect class="i" x="671.8105" y="57.4818" width="3.3719" height="1.2653"/><polygon class="i" points="667.599 51.662 670.973 56.722 673.295 56.747 667.599 51.662"/><g class="s"><path class="q" d="M659.5614,77.9864l-.026,31.323h11.5437V81.9567h.2127a.4584.4584,0,0,0,.4584-.4584V78.6077a.5528.5528,0,0,0-.5494-.5527Z"/><polygon class="q" points="666.071 73.184 660.515 78.062 671.804 78.384 666.071 73.184"/></g><rect class="ab" x="659.5354" y="81.0685" width="10.6554" height="28.241" transform="translate(1329.7263 190.3779) rotate(-180)"/><rect class="ac" x="656.6564" y="78.7245" width="14.2056" height="2.3439" transform="translate(1327.5183 159.793) rotate(-180)"/><rect class="i" x="659.8656" y="79.0445" width="2.298" height="1.7119" transform="translate(1322.0293 159.8008) rotate(-180)"/><rect class="i" x="668.2565" y="79.023" width="2.298" height="1.7119" transform="translate(1338.811 159.7578) rotate(-180)"/><rect class="i" x="657.5827" y="81.4289" width="3.5891" height="27.5169" transform="translate(1318.7546 190.3747) rotate(-180)"/><rect class="ad" x="630.8769" y="81.003" width="10.7394" height="28.241"/><rect class="ac" x="629.9837" y="78.6424" width="14.2056" height="2.3605"/><rect class="i" x="638.9894" y="78.9789" width="2.298" height="1.6915"/><polyline class="ae" points="641.599 79.246 641.599 77.525 644.53 77.525 644.53 75.23 656.632 75.23 656.632 77.525 659.563 77.525 659.563 110.185 641.599 110.185 641.599 79.246"/><line class="af" x1="641.5986" y1="81.2689" x2="641.5986" y2="80.7716"/><path class="ag" d="M650.7633,100.7518h.5138a2.9071,2.9071,0,0,1,2.9071,2.9071v6.5262a0,0,0,0,1,0,0h-6.3279a0,0,0,0,1,0,0v-6.5262A2.9071,2.9071,0,0,1,650.7633,100.7518Z"/><polygon class="ac" points="670.159 78.703 664.99 73.716 659.624 78.679 670.159 78.703"/><polygon class="i" points="670.159 78.703 664.99 73.716 659.624 78.679 670.159 78.703"/><path class="i" d="M654.1835,103.7562v6.429H652.629v-6.429a3.0041,3.0041,0,0,0-2.3873-2.94,2.9864,2.9864,0,0,1,.6174-.0644h.322A3.0034,3.0034,0,0,1,654.1835,103.7562Z"/><path class="aa" d="M647.7989,103.7562v6.429h1.5545v-6.429a3.0041,3.0041,0,0,1,2.3873-2.94,2.9856,2.9856,0,0,0-.6174-.0644h-.322A3.0035,3.0035,0,0,0,647.7989,103.7562Z"/><path class="af" d="M650.7633,100.7518h.5138a2.9071,2.9071,0,0,1,2.9071,2.9071v6.5262a0,0,0,0,1,0,0h-6.3279a0,0,0,0,1,0,0v-6.5262A2.9071,2.9071,0,0,1,650.7633,100.7518Z"/><line class="af" x1="651.0202" y1="110.185" x2="651.0202" y2="100.7518"/><rect class="o" x="630.2478" y="78.8727" width="2.298" height="1.8092"/><rect class="ac" x="634.5081" y="84.5756" width="3.477" height="20.885" rx="0.3822"/><rect class="o" x="634.8407" y="84.7892" width="0.7823" height="20.5366"/><rect class="i" x="636.9433" y="84.7403" width="0.7823" height="20.5366"/><rect class="g" x="634.5081" y="84.5756" width="3.477" height="20.885" rx="0.3822"/><rect class="z" x="629.9837" y="78.6424" width="11.6325" height="2.3605"/><rect class="ac" x="663.1247" y="84.5756" width="3.477" height="20.885" rx="0.3822"/><rect class="o" x="663.4573" y="84.7892" width="0.7823" height="20.5366"/><rect class="i" x="665.5599" y="84.7403" width="0.7823" height="20.5366"/><rect class="g" x="663.1247" y="84.5756" width="3.477" height="20.885" rx="0.3822"/><rect class="i" x="658.3084" y="77.6992" width="1.1246" height="32.2229"/><polygon class="o" points="665.026 74.172 662.242 78.345 660.325 78.365 665.026 74.172"/><polygon class="i" points="664.934 74.14 667.724 78.357 669.64 78.378 664.934 74.14"/><polygon class="g" points="670.159 78.703 664.99 73.716 659.624 78.679 670.159 78.703"/><polygon class="ah" points="667.868 51.05 675.074 56.9 674.029 56.881 667.868 51.05"/><path class="ai" d="M644.8253,98.0984l-.1094-.0176a.8259.8259,0,0,1-.6094-.8164V95.0515a.8062.8062,0,0,1,.7734-.834h4.0547a.806.806,0,0,1,.7725.834v2.2129a.806.806,0,0,1-.7725.834Z"/><path class="h" d="M648.9346,94.7175a.3077.3077,0,0,1,.273.3345v2.2119a.309.309,0,0,1-.273.3345H644.88a.2707.2707,0,0,1-.0557-.0061.3265.3265,0,0,1-.2173-.3284V95.052a.3077.3077,0,0,1,.273-.3345h4.0551m0-1H644.88a1.3062,1.3062,0,0,0-1.273,1.3345v2.2119a1.3215,1.3215,0,0,0,.9673,1.2967,1.3412,1.3412,0,0,0,.3057.0378h4.0551a1.3061,1.3061,0,0,0,1.273-1.3345V95.052a1.3062,1.3062,0,0,0-1.273-1.3345Z"/><path class="i" d="M649.2074,95.0519V97.264a.3088.3088,0,0,1-.2729.3343H644.88a.2612.2612,0,0,1-.0555-.006.3261.3261,0,0,1-.2173-.3283V95.0519a.3076.3076,0,0,1,.2728-.3343h4.055A.3076.3076,0,0,1,649.2074,95.0519Z"/><path class="o" d="M649.2074,95.0519V97.264a.3088.3088,0,0,1-.2729.3343h-2.1124l1.3576-2.8807h.7548A.3076.3076,0,0,1,649.2074,95.0519Z"/><path class="o" d="M647.5622,94.7176l-1.3577,2.8807H644.88a.2612.2612,0,0,1-.0555-.006.3261.3261,0,0,1-.2173-.3283v-.25l1.0815-2.2962Z"/><path class="ai" d="M652.1729,98.0984l-.1094-.0176a.8258.8258,0,0,1-.6093-.8164V95.0515a.8061.8061,0,0,1,.7734-.834h4.0547a.8062.8062,0,0,1,.7734.834v2.2129a.8061.8061,0,0,1-.7734.834Z"/><path class="h" d="M656.2823,94.7175a.3077.3077,0,0,1,.2729.3345v2.2119a.3089.3089,0,0,1-.2729.3345h-4.0552a.27.27,0,0,1-.0552-.0061.3258.3258,0,0,1-.2172-.3284V95.052a.3077.3077,0,0,1,.2724-.3345h4.0552m0-1h-4.0552a1.3061,1.3061,0,0,0-1.2724,1.3345v2.2119a1.2771,1.2771,0,0,0,1.2724,1.3345h4.0552a1.3061,1.3061,0,0,0,1.2729-1.3345V95.052a1.3062,1.3062,0,0,0-1.2729-1.3345Z"/><path class="i" d="M656.5552,95.0519V97.264a.3088.3088,0,0,1-.2728.3343h-4.0551a.2626.2626,0,0,1-.0555-.006.3261.3261,0,0,1-.2173-.3283V95.0519a.3076.3076,0,0,1,.2728-.3343h4.0551A.3076.3076,0,0,1,656.5552,95.0519Z"/><path class="o" d="M656.5552,95.0519V97.264a.3088.3088,0,0,1-.2728.3343H654.17l1.3577-2.8807h.7548A.3076.3076,0,0,1,656.5552,95.0519Z"/><path class="o" d="M654.91,94.7176l-1.3577,2.8807h-1.325a.2626.2626,0,0,1-.0555-.006.3261.3261,0,0,1-.2173-.3283v-.25l1.0816-2.2962Z"/><path class="ai" d="M644.8253,91.3738l-.1094-.0176a.8259.8259,0,0,1-.6094-.8164V88.3279a.807.807,0,0,1,.7734-.835h4.0547a.8069.8069,0,0,1,.7725.835V90.54a.806.806,0,0,1-.7725.834Z"/><path class="h" d="M648.9346,87.9932a.3077.3077,0,0,1,.273.3345V90.54a.3089.3089,0,0,1-.273.3344H644.88a.2707.2707,0,0,1-.0557-.0061.3263.3263,0,0,1-.2173-.3283V88.3277a.3077.3077,0,0,1,.273-.3345h4.0551m0-1H644.88a1.3061,1.3061,0,0,0-1.273,1.3345V90.54a1.3215,1.3215,0,0,0,.9673,1.2966,1.3412,1.3412,0,0,0,.3057.0378h4.0551a1.3061,1.3061,0,0,0,1.273-1.3344V88.3277a1.3061,1.3061,0,0,0-1.273-1.3345Z"/><path class="i" d="M649.2074,88.3276V90.54a.3088.3088,0,0,1-.2729.3343H644.88a.2612.2612,0,0,1-.0555-.006.326.326,0,0,1-.2173-.3283v-2.212a.3076.3076,0,0,1,.2728-.3344h4.055A.3076.3076,0,0,1,649.2074,88.3276Z"/><path class="o" d="M649.2074,88.3276V90.54a.3088.3088,0,0,1-.2729.3343h-2.1124l1.3576-2.8807h.7548A.3076.3076,0,0,1,649.2074,88.3276Z"/><path class="o" d="M647.5622,87.9932l-1.3577,2.8807H644.88a.2612.2612,0,0,1-.0555-.006.326.326,0,0,1-.2173-.3283v-.25l1.0815-2.2962Z"/><path class="ai" d="M652.1729,91.3738l-.1094-.0176a.8258.8258,0,0,1-.6093-.8164V88.3279a.8069.8069,0,0,1,.7734-.835h4.0547a.807.807,0,0,1,.7734.835V90.54a.8061.8061,0,0,1-.7734.834Z"/><path class="h" d="M656.2823,87.9932a.3077.3077,0,0,1,.2729.3345V90.54a.3088.3088,0,0,1-.2729.3344h-4.0552a.27.27,0,0,1-.0552-.0061.3256.3256,0,0,1-.2172-.3283V88.3277a.3077.3077,0,0,1,.2724-.3345h4.0552m0-1h-4.0552a1.306,1.306,0,0,0-1.2724,1.3345V90.54a1.2771,1.2771,0,0,0,1.2724,1.3344h4.0552a1.3061,1.3061,0,0,0,1.2729-1.3344V88.3277a1.3061,1.3061,0,0,0-1.2729-1.3345Z"/><path class="i" d="M656.5552,88.3276V90.54a.3088.3088,0,0,1-.2728.3343h-4.0551a.2626.2626,0,0,1-.0555-.006.326.326,0,0,1-.2173-.3283v-2.212a.3076.3076,0,0,1,.2728-.3344h4.0551A.3076.3076,0,0,1,656.5552,88.3276Z"/><path class="o" d="M656.5552,88.3276V90.54a.3088.3088,0,0,1-.2728.3343H654.17l1.3577-2.8807h.7548A.3076.3076,0,0,1,656.5552,88.3276Z"/><path class="o" d="M654.91,87.9932l-1.3577,2.8807h-1.325a.2626.2626,0,0,1-.0555-.006.326.326,0,0,1-.2173-.3283v-.25l1.0816-2.2962Z"/><path class="ai" d="M644.8253,84.6492l-.1094-.0176a.8259.8259,0,0,1-.6094-.8164V81.6033a.8061.8061,0,0,1,.7734-.834h4.0547a.806.806,0,0,1,.7725.834v2.2119a.806.806,0,0,1-.7725.834Z"/><path class="h" d="M648.9346,81.2688a.3076.3076,0,0,1,.273.3342v2.2122a.3088.3088,0,0,1-.273.3342H644.88a.27.27,0,0,1-.0557-.0058.3265.3265,0,0,1-.2173-.3284V81.603a.3076.3076,0,0,1,.273-.3342h4.0551m0-1H644.88a1.3061,1.3061,0,0,0-1.273,1.3342v2.2122a1.3213,1.3213,0,0,0,.9673,1.2966,1.3419,1.3419,0,0,0,.3057.0376h4.0551a1.306,1.306,0,0,0,1.273-1.3342V81.603a1.3061,1.3061,0,0,0-1.273-1.3342Z"/><path class="i" d="M649.2074,81.6032v2.212a.3088.3088,0,0,1-.2729.3343H644.88a.2612.2612,0,0,1-.0555-.006.326.326,0,0,1-.2173-.3283v-2.212a.3075.3075,0,0,1,.2728-.3343h4.055A.3075.3075,0,0,1,649.2074,81.6032Z"/><path class="o" d="M649.2074,81.6032v2.212a.3088.3088,0,0,1-.2729.3343h-2.1124l1.3576-2.8806h.7548A.3075.3075,0,0,1,649.2074,81.6032Z"/><path class="o" d="M647.5622,81.2689,646.2045,84.15H644.88a.2612.2612,0,0,1-.0555-.006.326.326,0,0,1-.2173-.3283v-.25l1.0815-2.2961Z"/><path class="ai" d="M652.1729,84.6492l-.1094-.0176a.8258.8258,0,0,1-.6093-.8164V81.6033a.806.806,0,0,1,.7734-.834h4.0547a.8061.8061,0,0,1,.7734.834v2.2119a.8061.8061,0,0,1-.7734.834Z"/><path class="h" d="M656.2823,81.2688a.3076.3076,0,0,1,.2729.3342v2.2122a.3088.3088,0,0,1-.2729.3342h-4.0552a.269.269,0,0,1-.0552-.0058.3258.3258,0,0,1-.2172-.3284V81.603a.3076.3076,0,0,1,.2724-.3342h4.0552m0-1h-4.0552a1.306,1.306,0,0,0-1.2724,1.3342v2.2122a1.3209,1.3209,0,0,0,.9682,1.2969,1.3422,1.3422,0,0,0,.3042.0373h4.0552a1.306,1.306,0,0,0,1.2729-1.3342V81.603a1.3061,1.3061,0,0,0-1.2729-1.3342Z"/><path class="i" d="M656.5552,81.6032v2.212a.3088.3088,0,0,1-.2728.3343h-4.0551a.2626.2626,0,0,1-.0555-.006.326.326,0,0,1-.2173-.3283v-2.212a.3075.3075,0,0,1,.2728-.3343h4.0551A.3075.3075,0,0,1,656.5552,81.6032Z"/><path class="o" d="M656.5552,81.6032v2.212a.3088.3088,0,0,1-.2728.3343H654.17l1.3577-2.8806h.7548A.3075.3075,0,0,1,656.5552,81.6032Z"/><path class="o" d="M654.91,81.2689,653.5523,84.15h-1.325a.2626.2626,0,0,1-.0555-.006.326.326,0,0,1-.2173-.3283v-.25l1.0816-2.2961Z"/><rect class="u" x="476.7853" y="192.9892" width="61.8166" height="49.4163" rx="1.9431"/><rect class="u" x="472.468" y="240.1845" width="69.9601" height="6.0387" rx="1.0256"/><rect class="c" x="475.0513" y="192.9892" width="61.8166" height="48.1207" rx="1.9175"/><rect class="ac" x="478.7529" y="196.2032" width="54.4134" height="41.3226" rx="1.3493"/><path class="o" d="M483.8056,237.5271H480.104a1.3515,1.3515,0,0,1-1.3511-1.351V197.5537a1.3492,1.3492,0,0,1,1.3511-1.3511h3.7016a1.3492,1.3492,0,0,0-1.3511,1.3511v38.6224A1.3515,1.3515,0,0,0,483.8056,237.5271Z"/><path class="i" d="M533.1663,197.5537v38.6224a1.3514,1.3514,0,0,1-1.3511,1.351h-3.7016a1.3514,1.3514,0,0,0,1.3511-1.351V197.5537a1.3491,1.3491,0,0,0-1.3511-1.3511h3.7016A1.3491,1.3491,0,0,1,533.1663,197.5537Z"/><rect class="g" x="478.7529" y="196.2032" width="54.4134" height="41.3226" rx="1.3493"/><path class="g" d="M536.8679,204.5442v-9.6973a1.8175,1.8175,0,0,0-1.7745-1.8577H476.8258a1.8175,1.8175,0,0,0-1.7745,1.8577v44.4053a1.8175,1.8175,0,0,0,1.7745,1.8577h58.2676a1.8175,1.8175,0,0,0,1.7745-1.8577v-34.708Z"/><rect class="e" x="470.7945" y="240.1845" width="69.9601" height="4.4419" rx="0.484"/><rect class="i" x="470.7945" y="242.4055" width="69.4761" height="2.221"/><path class="ah" d="M533.3181,192.9892h1.0686a2.2635,2.2635,0,0,1,2.2635,2.2635v44.7437a0,0,0,0,1,0,0h-3.3321a0,0,0,0,1,0,0V192.9892A0,0,0,0,1,533.3181,192.9892Z"/><path class="l" d="M517.379,214.8642l-.0985,10.6H494.2232v-10.6l10.3906-9.7517a1.7355,1.7355,0,0,1,2.3753,0l10.39,9.7517"/><g class="t"><path class="h" d="M517.379,214.8642l-.0985,10.6H494.2232v-10.6l10.3906-9.7517a1.7355,1.7355,0,0,1,2.3753,0l10.39,9.7517"/></g><rect class="e" x="497.2332" y="207.3562" width="17.1358" height="18.7908"/><rect class="i" x="512.5754" y="207.3562" width="1.4276" height="18.5688"/><polygon class="l" points="494.223 214.864 494.223 229.086 502.21 221.606 494.223 214.864"/><polygon class="l" points="517.378 214.865 517.378 229.086 514.37 226.287 509.342 221.606 514.37 217.386 517.378 214.865"/><polygon class="i" points="517.378 214.865 517.378 229.086 514.37 226.287 509.342 221.606 514.37 217.386 517.378 214.865"/><g class="t"><line class="g" x1="500.0884" y1="210.9342" x2="509.6953" y2="210.9342"/><line class="g" x1="500.0884" y1="213.6403" x2="504.9958" y2="213.6403"/><line class="g" x1="500.0884" y1="216.3624" x2="507.6936" y2="216.3624"/><line class="g" x1="507.057" y1="213.6403" x2="511.5138" y2="213.6403"/></g><polygon class="o" points="494.318 214.865 494.318 229.086 497.326 229.086 497.326 217.386 494.318 214.865"/><polygon class="i" points="517.696 214.865 517.696 229.086 514.688 229.086 514.688 217.386 517.696 214.865"/><path class="l" d="M494.2232,229.0865H517.379l-10.39-9.7517a1.7355,1.7355,0,0,0-2.3753,0Z"/><polygon class="g" points="494.223 214.864 494.223 229.086 502.21 221.606 494.223 214.864"/><circle class="h" cx="526.5353" cy="234.6693" r="0.5552"/><line class="g" x1="499.6294" y1="234.6693" x2="524.326" y2="234.6693"/><line class="g" x1="482.2475" y1="201.7013" x2="494.318" y2="201.7013"/><line class="g" x1="482.2475" y1="205.2683" x2="494.318" y2="205.2683"/><line class="g" x1="482.2475" y1="208.8354" x2="490.7634" y2="208.8354"/><g class="p"><path class="aj" d="M360.8788,121.5773c-.1965.1383-2.0837.75-2.189.7776a6.9346,6.9346,0,0,1-4.4181-.1572c-2.0074-.8129-4.0178-1.6478-5.9326-2.6528-2.7645-1.4508-3.5154-3.8634-2.2648-6.7417,1.163-2.6765,2.3286-5.352,3.5215-8.0152a4.5911,4.5911,0,0,1,3.3523-2.7965,5.51,5.51,0,0,1,3.3948.5014c1.39.6019,2.78,1.2051,4.161,1.8277a.4425.4425,0,0,0,.6364-.15c.4794-.615,1.0206-1.1835,1.4795-1.8126a34.97,34.97,0,0,0,4.2057-7.7591,28.2419,28.2419,0,0,0,2.18-8.3884.5292.5292,0,0,0-.3836-.6342c-1.6408-.7029-3.2973-1.3793-4.8915-2.1782a4.4517,4.4517,0,0,1-2.2575-5.8557c1.1559-2.885,2.376-5.7493,3.7015-8.56,1.3116-2.7812,3.5381-3.6783,6.4478-2.6361,1.7973.6437,3.5246,1.4863,5.2713,2.2667a7.8835,7.8835,0,0,1,4.1351,4.363,18.2574,18.2574,0,0,1,1.3153,6.4256c.3318,8.9463-2.0566,17.2452-6.0933,25.1278a49.0068,49.0068,0,0,1-7.569,10.7621A29.5683,29.5683,0,0,1,362.6,120.559c-.5911.3685-1.1988.71-1.7989,1.0643"/></g><path class="d" d="M342.5617,103.852a7.7312,7.7312,0,0,1-5.9111-1.7916,19.7255,19.7255,0,0,1-10.7231,3.1052c-10.2965,0-18.6427-7.6457-18.6427-17.0786,0-9.4293,8.3462-17.075,18.6427-17.075S344.57,78.6577,344.57,88.087a16.136,16.136,0,0,1-4.1542,10.7466v.0037c.0031.1252.0881,3.2336,2.2349,4.6253a.2144.2144,0,0,1-.0886.3894"/><path class="e" d="M340.5733,103.852a7.7312,7.7312,0,0,1-5.9111-1.7916,19.7255,19.7255,0,0,1-10.7231,3.1052c-10.2965,0-18.6427-7.6457-18.6427-17.0786,0-9.4293,8.3462-17.075,18.6427-17.075s18.6422,7.6457,18.6422,17.075a16.136,16.136,0,0,1-4.1542,10.7466v.0037c.0031.1252.088,3.2336,2.2348,4.6253a.2144.2144,0,0,1-.0886.3894"/><circle class="i" cx="314.2077" cy="88.0315" r="2.7991"/><circle class="i" cx="323.744" cy="88.0315" r="2.7991"/><circle class="i" cx="333.2802" cy="88.0315" r="2.7991"/><path class="ak" d="M327.7359,74.2305s-8.6565-2.408-14.9584,4.0862"/><path class="i" d="M340.5721,103.8536a6.8,6.8,0,0,1-3.1482-.3016.1953.1953,0,0,0-.0762-.09,5.02,5.02,0,0,1-1.9438-2.9117,3.0507,3.0507,0,0,1,.5036-2.682,16.0273,16.0273,0,0,0,3.359-9.783c0-8.9178-7.4631-16.2383-16.984-17.0039.5468-.0463,1.1-.07,1.657-.07,10.2964,0,18.6409,7.6453,18.6409,17.0735a16.1414,16.1414,0,0,1-4.1524,10.7471v.0033c.0033.126.0862,3.2344,2.2336,4.6263A.2152.2152,0,0,1,340.5721,103.8536Z"/><circle class="h" cx="329.6665" cy="74.7808" r="0.5694"/><circle class="h" cx="337.4795" cy="95.231" r="0.5694"/><path class="r" d="M359.96,119.0712c-.1966.1384-2.0838.75-2.1891.7776a6.9339,6.9339,0,0,1-4.4181-.1572c-2.0074-.8129-4.0177-1.6478-5.9326-2.6527-2.7645-1.4509-3.5154-3.8634-2.2648-6.7417,1.163-2.6765,2.3286-5.3521,3.5216-8.0153a4.5911,4.5911,0,0,1,3.3523-2.7965,5.5106,5.5106,0,0,1,3.3948.5014c1.39.6019,2.78,1.2051,4.161,1.8278a.4425.4425,0,0,0,.6363-.15c.4794-.615,1.0206-1.1836,1.48-1.8127a34.9677,34.9677,0,0,0,4.2057-7.7591,28.2413,28.2413,0,0,0,2.18-8.3883.5292.5292,0,0,0-.3836-.6343c-1.6408-.7029-3.2972-1.3793-4.8915-2.1781a4.4518,4.4518,0,0,1-2.2574-5.8558c1.1558-2.8849,2.3759-5.7492,3.7014-8.56,1.3116-2.7811,3.5381-3.6782,6.4478-2.6361,1.7973.6437,3.5247,1.4863,5.2713,2.2667A7.8835,7.8835,0,0,1,380.11,70.47a18.2579,18.2579,0,0,1,1.3154,6.4256c.3317,8.9463-2.0567,17.2452-6.0934,25.1278a49.0074,49.0074,0,0,1-7.5689,10.7621,29.5714,29.5714,0,0,1-6.0825,5.2674c-.5911.3684-1.1989.71-1.799,1.0642"/><g class="t"><path class="aj" d="M374.9268,102.0214a48.8262,48.8262,0,0,1-7.57,10.76,29.6988,29.6988,0,0,1-6.08,5.27c-.56.35-1.15.68-1.72,1.02l-.08.04c-.42.2-2.02.71-2.11.74a6.96,6.96,0,0,1-4.42-.16c-2.01-.81-4.02-1.65-5.93-2.65a5.7747,5.7747,0,0,1-2.04-1.67c1.92,1,3.93,1.84,5.93,2.65a6.9626,6.9626,0,0,0,4.42.16c.1-.03,1.7-.54,2.11-.73l.08-.05c.57-.34,1.16-.67,1.72-1.02a29.4528,29.4528,0,0,0,6.09-5.27,48.88,48.88,0,0,0,7.56-10.76c4.04-7.88,6.43-16.18,6.1-25.13a18.1781,18.1781,0,0,0-1.32-6.42,8.44,8.44,0,0,0-1.44-2.37,8.0212,8.0212,0,0,1,3.48,4.04,18.1169,18.1169,0,0,1,1.31,6.42C381.3568,85.8413,378.9668,94.1414,374.9268,102.0214Z"/></g><path class="r" d="M368.011,80.16c2.3026-1.4582,6.252-7.7793,5.1308-12.1405"/><path class="r" d="M351.2954,116.0621c2.3026-1.4582,6.252-7.7793,5.1308-12.1406"/><circle class="h" cx="355.5411" cy="102.0228" r="0.5694"/><circle class="h" cx="372.2579" cy="66.4314" r="0.5694"/><path class="al" d="M517.7,77.24V68.4407a3.242,3.242,0,0,0-3.3321-3.2036l-10.3745.176h-20.75a3.24,3.24,0,0,0-3.276,3.2036v44.84a3.24,3.24,0,0,0,3.276,3.2036h25.5238a8.836,8.836,0,0,0,8.9329-8.7346V77.24"/><path class="am" d="M516.1363,76.526V67.5678a3.2692,3.2692,0,0,0-3.3321-3.2616l-10.3745.1792H481.68a3.2688,3.2688,0,0,0-3.2759,3.2615v45.6522a3.2688,3.2688,0,0,0,3.2759,3.2616h25.5238a8.9135,8.9135,0,0,0,8.933-8.8927V76.526"/><path class="an" d="M512.8042,64.3062l-2.0234.0295a3.2649,3.2649,0,0,1,2.8594,3.2321v40.2a8.9135,8.9135,0,0,1-8.9329,8.8928h2.496a8.9136,8.9136,0,0,0,8.933-8.8928v-40.2A3.2692,3.2692,0,0,0,512.8042,64.3062Z"/><path class="am" d="M504.817,114.3c2.5109.0823,4.2777-.4268,5.4554-1.5952"/><g class="s"><path class="ao" d="M489.0614,77.69a1.6318,1.6318,0,1,1-1.6312-1.6241,1.6285,1.6285,0,0,1,1.6312,1.6241"/><path class="ao" d="M489.0614,84.9207a1.6318,1.6318,0,1,1-1.6312-1.6253,1.6293,1.6293,0,0,1,1.6312,1.6253"/><path class="ao" d="M489.0614,91.962a1.6318,1.6318,0,1,1-1.6312-1.624,1.6285,1.6285,0,0,1,1.6312,1.624"/><path class="ao" d="M489.0614,99.1931a1.6318,1.6318,0,1,1-1.6312-1.6252,1.6293,1.6293,0,0,1,1.6312,1.6252"/><rect class="q" x="491.865" y="77.0032" width="16.8771" height="1.4064" rx="0.7032"/><rect class="q" x="491.865" y="84.2175" width="12.7075" height="1.4064" rx="0.7032"/><rect class="q" x="491.865" y="91.2594" width="16.8771" height="1.4064" rx="0.7032"/><rect class="q" x="491.865" y="98.4899" width="8.2316" height="1.4064" rx="0.7032"/></g><path class="ak" d="M516.1363,76.526V67.5678a3.2692,3.2692,0,0,0-3.3321-3.2616l-10.3745.1792H481.68a3.2688,3.2688,0,0,0-3.2759,3.2615v45.6522a3.2688,3.2688,0,0,0,3.2759,3.2616h25.5238a8.9135,8.9135,0,0,0,8.933-8.8927V76.526"/><path class="ak" d="M516.1363,76.526V67.5678a3.2692,3.2692,0,0,0-3.3321-3.2616l-10.3745.1792H481.68a3.2688,3.2688,0,0,0-3.2759,3.2615v45.6522a3.2688,3.2688,0,0,0,3.2759,3.2616h25.5238a8.9135,8.9135,0,0,0,8.933-8.8927V76.526"/><path class="k" d="M472.77,107.872h25.1558c0,4.8538,3.6486,8.7887,8.1492,8.7887H480.8824c-4.5007,0-8.1492-3.9349-8.1492-8.7887"/><path class="i" d="M480.8824,114.1089a8.2558,8.2558,0,0,1-7.7991-6.2369h-.35c0,4.8538,3.6485,8.7887,8.1492,8.7887h25.1924a7.8353,7.8353,0,0,1-5.7406-2.5518Z"/><line class="g" x1="478.971" y1="110.4503" x2="493.0586" y2="110.4503"/><g class="s"><path class="h" d="M492.2134,64.58c-.0165.2058-.0269.4134-.0269.6237a7.0674,7.0674,0,1,0,14.121,0c0-.21-.01-.4179-.027-.6237Z"/></g><path class="r" d="M504.6076,65.45a7.3377,7.3377,0,1,1-7.338-7.3056A7.3222,7.3222,0,0,1,504.6076,65.45Z"/><path class="o" d="M498.2085,72.6925a6.6333,6.6333,0,0,1-.94.0627,7.3058,7.3058,0,1,1,0-14.6115,6.6482,6.6482,0,0,1,.94.0626,7.299,7.299,0,0,0,0,14.4862Z"/><path class="g" d="M504.6076,65.45a7.3377,7.3377,0,1,1-7.338-7.3056A7.3222,7.3222,0,0,1,504.6076,65.45Z"/><path class="i" d="M497.2687,58.1437a6.6486,6.6486,0,0,0-.94.0626,7.3263,7.3263,0,0,1,6.2112,5.6224l-2.1042-.3058a.5621.5621,0,0,1-.4232-.3075l-.9591-1.9436a.5622.5622,0,0,0-1.0082,0l-.9592,1.9436a.5619.5619,0,0,1-.4232.3075l-2.1448.3117a.5621.5621,0,0,0-.3115.9587l1.552,1.5129a.5617.5617,0,0,1,.1616.4974l-.3663,2.1363a.5621.5621,0,0,0,.8155.5925l1.9184-1.0086a.562.562,0,0,1,.5231,0l1.9184,1.0086a.5621.5621,0,0,0,.8156-.5925l-.3664-2.1363a.5617.5617,0,0,1,.1617-.4974l1.3667-1.3323c.01.1578.0223.3152.0223.4755,0,3.7187-1.3063,6.0644-6.4,7.2431a6.6337,6.6337,0,0,0,.94.0627,7.3058,7.3058,0,1,0,0-14.6115Z"/><path class="e" d="M497.8932,61.098l.9592,1.9435a.5619.5619,0,0,0,.4232.3075l2.1448.3117a.562.562,0,0,1,.3115.9587l-1.552,1.5128a.5621.5621,0,0,0-.1616.4976l.3663,2.1361a.5621.5621,0,0,1-.8155.5926L497.6507,68.35a.562.562,0,0,0-.5231,0l-1.9184,1.0086a.5621.5621,0,0,1-.8156-.5926L494.76,66.63a.5621.5621,0,0,0-.1617-.4976l-1.552-1.5128a.562.562,0,0,1,.3115-.9587l2.1449-.3117a.5622.5622,0,0,0,.4232-.3075l.9592-1.9435A.5621.5621,0,0,1,497.8932,61.098Z"/><circle class="h" cx="511.8818" cy="111.2003" r="0.75"/></svg>